<svg xmlns="http://www.w3.org/2000/svg" width="18.001" height="17.993" viewBox="0 0 18.001 17.993">
  <g id="filter" transform="translate(-2965.02 587)">
    <path id="Path_2" data-name="Path 2" d="M2983.756-584.258a.659.659,0,0,1-.7.433c-.948-.014-1.9,0-2.846,0h-.157a6.814,6.814,0,0,1-.446.894,2.48,2.48,0,0,1-2.583,1.123,2.5,2.5,0,0,1-2.094-1.864c-.043-.142-.115-.155-.237-.155q-4.138,0-8.276,0a.638.638,0,0,1-.51-.183.555.555,0,0,1,.258-.914,1.139,1.139,0,0,1,.295-.028q4.094,0,8.188,0h.234a2.667,2.667,0,0,1,.635-1.2,2.611,2.611,0,0,1,1.464-.808.692.692,0,0,0,.1-.033h.7a.548.548,0,0,0,.082.028,2.583,2.583,0,0,1,1.978,1.54c.07.151.115.314.173.477h.2c.931,0,1.862.01,2.793,0a.713.713,0,0,1,.749.42Zm-6.307-1.622a1.488,1.488,0,0,0-1.5,1.488,1.5,1.5,0,0,0,1.494,1.5,1.506,1.506,0,0,0,1.494-1.484A1.5,1.5,0,0,0,2977.449-585.88Z" transform="translate(-0.734 0)"/>
    <path id="Path_3" data-name="Path 3" d="M2983.771-312.063a.713.713,0,0,1-.75.42c-.931-.014-1.862,0-2.794,0h-.191a2.578,2.578,0,0,1-2.807,2.029,2.551,2.551,0,0,1-2.344-2.029h-8.459a.584.584,0,0,1-.627-.4.555.555,0,0,1,.489-.719c.069-.005.14,0,.21,0h8.38a2.575,2.575,0,0,1,2.595-2.046,2.569,2.569,0,0,1,2.561,2.046h1.314c.568,0,1.137.014,1.7-.005a.662.662,0,0,1,.719.433Zm-6.307,1.341a1.5,1.5,0,0,0,1.488-1.485,1.507,1.507,0,0,0-1.494-1.5,1.5,1.5,0,0,0-1.493,1.5A1.488,1.488,0,0,0,2977.464-310.723Z" transform="translate(-0.749 -259.398)"/>
    <path id="Path_4" data-name="Path 4" d="M2983.7-448.293a.691.691,0,0,1-.725.427c-2.725-.009-5.449,0-8.173,0h-.207a2.626,2.626,0,0,1-2.667,2.047,2.622,2.622,0,0,1-2.479-2.047h-.185c-.99,0-1.98,0-2.971,0a.56.56,0,0,1-.545-.784.563.563,0,0,1,.564-.341c.978,0,1.957,0,2.935,0h.2a2.639,2.639,0,0,1,1.211-1.677,2.63,2.63,0,0,1,1.476-.374,2.64,2.64,0,0,1,2.441,2.051h.2c2.73,0,5.46,0,8.191,0a.69.69,0,0,1,.725.427Zm-11.685,1.351a1.492,1.492,0,0,0,1.492-1.5,1.489,1.489,0,0,0-1.483-1.487,1.5,1.5,0,0,0-1.5,1.487A1.5,1.5,0,0,0,2972.014-446.942Z" transform="translate(-0.677 -129.566)"/>
  </g>
</svg>
