<svg width="19" height="21" viewBox="0 0 19 21" fill="none" xmlns="http://www.w3.org/2000/svg">
<path fill-rule="evenodd" clip-rule="evenodd" d="M10.8597 14.2456C11.9756 14.2456 12.8839 15.1474 12.8839 16.2558V19.1068C12.8839 19.345 13.0748 19.5359 13.3195 19.5415H15.086C16.4781 19.5415 17.6098 18.4237 17.6098 17.0501V8.96448C17.6033 8.49179 17.378 8.04692 16.9916 7.75126L10.881 2.87799C10.0607 2.22828 8.91332 2.22828 8.09029 2.87984L2.02141 7.7494C1.6201 8.05433 1.39488 8.49921 1.39024 8.98023V17.0501C1.39024 18.4237 2.5219 19.5415 3.914 19.5415H5.69722C5.94839 19.5415 6.15229 19.3422 6.15229 19.0975C6.15229 19.0437 6.15878 18.99 6.1699 18.939V16.2558C6.1699 15.1538 7.07263 14.253 8.1802 14.2456H10.8597ZM15.086 20.9317H13.3028C12.2814 20.9076 11.4936 20.1059 11.4936 19.1068V16.2558C11.4936 15.9138 11.2091 15.6358 10.8597 15.6358H8.18483C7.84283 15.6376 7.56015 15.9166 7.56015 16.2558V19.0975C7.56015 19.167 7.55088 19.2337 7.53141 19.2968C7.43132 20.2143 6.64722 20.9317 5.69722 20.9317H3.914C1.75541 20.9317 0 19.1902 0 17.0501V8.97374C0.00926829 8.05248 0.433756 7.20906 1.16688 6.65389L7.22371 1.79267C8.55741 0.736086 10.4157 0.736085 11.7466 1.79082L17.847 6.65667C18.5635 7.20257 18.988 8.04414 19 8.95428V17.0501C19 19.1902 17.2446 20.9317 15.086 20.9317Z" fill="#810081"/>
</svg>
