<svg width="21" height="21" viewBox="0 0 21 21" fill="none" xmlns="http://www.w3.org/2000/svg">
<path d="M17.5437 9.625H3.45625C2.99716 9.625 2.625 9.99716 2.625 10.4562V10.5438C2.625 11.0028 2.99716 11.375 3.45625 11.375H17.5437C18.0028 11.375 18.375 11.0028 18.375 10.5438V10.4562C18.375 9.99716 18.0028 9.625 17.5437 9.625Z" fill="#810081"/>
<path d="M17.5437 14H3.45625C2.99716 14 2.625 14.3722 2.625 14.8313V14.9187C2.625 15.3778 2.99716 15.75 3.45625 15.75H17.5437C18.0028 15.75 18.375 15.3778 18.375 14.9187V14.8313C18.375 14.3722 18.0028 14 17.5437 14Z" fill="#810081"/>
<path d="M17.5437 5.25H3.45625C2.99716 5.25 2.625 5.62216 2.625 6.08125V6.16875C2.625 6.62784 2.99716 7 3.45625 7H17.5437C18.0028 7 18.375 6.62784 18.375 6.16875V6.08125C18.375 5.62216 18.0028 5.25 17.5437 5.25Z" fill="#810081"/>
</svg>
