<svg width="17" height="20" viewBox="0 0 17 20" fill="none" xmlns="http://www.w3.org/2000/svg">
<path fill-rule="evenodd" clip-rule="evenodd" d="M6.71387 17.5138C7.18871 18.0428 7.79829 18.3333 8.43079 18.3333H8.43171C9.06696 18.3333 9.67929 18.0427 10.155 17.5129C10.4099 17.2315 10.8444 17.2086 11.1258 17.4625C11.4081 17.7164 11.431 18.1518 11.1771 18.4333C10.4365 19.2555 9.46204 19.7083 8.43171 19.7083H8.42987C7.40229 19.7074 6.42971 19.2546 5.69179 18.4323C5.43787 18.1509 5.46079 17.7155 5.74312 17.4625C6.02546 17.2077 6.45996 17.2306 6.71387 17.5138ZM8.47644 0C12.551 0 15.2882 3.1735 15.2882 6.13708C15.2882 7.6615 15.6759 8.30775 16.0875 8.99342C16.4945 9.66992 16.9556 10.4381 16.9556 11.8901C16.6357 15.5998 12.7628 15.9023 8.47644 15.9023C4.19011 15.9023 0.316274 15.5998 1.21333e-05 11.9488C-0.00272562 10.4381 0.458358 9.66992 0.865357 8.99342L1.00904 8.75156C1.36281 8.14354 1.66469 7.48216 1.66469 6.13708C1.66469 3.1735 4.40186 0 8.47644 0ZM8.47644 1.375C5.27269 1.375 3.03969 3.88483 3.03969 6.13708C3.03969 8.04283 2.51077 8.92375 2.04327 9.70108C1.66836 10.3253 1.37227 10.8185 1.37227 11.8901C1.52536 13.6189 2.66661 14.5273 8.47644 14.5273C14.2542 14.5273 15.4312 13.5786 15.5834 11.8305C15.5806 10.8185 15.2845 10.3253 14.9096 9.70108C14.4421 8.92375 13.9132 8.04283 13.9132 6.13708C13.9132 3.88483 11.6802 1.375 8.47644 1.375Z" fill="#810081"/>
</svg>
