<svg width="20" height="20" viewBox="0 0 20 20" fill="none" xmlns="http://www.w3.org/2000/svg">
<path d="M14.8942 14.9262C15.2628 14.5602 15.8535 14.5602 16.2221 14.9262L18.6579 16.8924H18.7002C19.193 17.3906 19.193 18.1981 18.7002 18.6962C18.2074 19.1943 17.4084 19.1943 16.9156 18.6962L14.8942 16.3795L14.8175 16.293C14.6746 16.1121 14.5957 15.8866 14.5957 15.6529C14.5957 15.3802 14.7031 15.1187 14.8942 14.9262ZM8.1787 0C10.3478 0 12.4281 0.870953 13.9619 2.42126C15.4957 3.97157 16.3574 6.07423 16.3574 8.2667C16.3574 12.8323 12.6957 16.5334 8.1787 16.5334C3.66173 16.5334 0 12.8323 0 8.2667C0 3.70113 3.66173 0 8.1787 0Z" fill="#800080"/>
</svg>
