<svg width="17" height="18" viewBox="0 0 17 18" fill="none" xmlns="http://www.w3.org/2000/svg">
<path fill-rule="evenodd" clip-rule="evenodd" d="M8.16999 0.957275C12.6749 0.957275 16.3392 4.54928 16.3392 8.96527C16.3392 11.0487 15.5236 12.9489 14.1888 14.3751L16.8152 16.9442C17.061 17.1852 17.0618 17.575 16.816 17.8159C16.6936 17.9376 16.5317 17.9977 16.3706 17.9977C16.2104 17.9977 16.0493 17.9376 15.926 17.8176L13.2679 15.2192C11.8696 16.3169 10.0967 16.9741 8.16999 16.9741C3.6651 16.9741 -6.10352e-05 13.3813 -6.10352e-05 8.96527C-6.10352e-05 4.54928 3.6651 0.957275 8.16999 0.957275ZM8.16999 2.19079C4.35887 2.19079 1.25829 5.22936 1.25829 8.96527C1.25829 12.7012 4.35887 15.7406 8.16999 15.7406C11.9803 15.7406 15.0809 12.7012 15.0809 8.96527C15.0809 5.22936 11.9803 2.19079 8.16999 2.19079Z" fill="#810081"/>
</svg>
