<svg width="24" height="24" viewBox="0 0 24 24" fill="none" xmlns="http://www.w3.org/2000/svg">
<path fill-rule="evenodd" clip-rule="evenodd" d="M4.35966 5.06081C4.36166 5.06081 4.31166 5.11281 4.24866 5.17481C4.00666 5.40981 3.50566 5.89881 3.50061 6.92181C3.49266 8.35281 4.43366 11.0098 8.96466 15.5398C13.4747 20.0478 16.1277 20.9998 17.5617 20.9998H17.5827C18.6057 20.9948 19.0937 20.4928 19.3297 20.2518C19.4017 20.1778 19.4597 20.1238 19.5007 20.0898C20.4967 19.0878 21.0067 18.3418 21.0017 17.8638C20.9947 17.3758 20.3877 16.7988 19.5487 16.0008C19.2817 15.7468 18.9917 15.4708 18.6857 15.1648C17.8927 14.3738 17.4997 14.5088 16.6357 14.8128C15.4407 15.2318 13.8007 15.8018 11.2527 13.2528C8.70066 10.7028 9.27166 9.06481 9.68966 7.86981C9.99166 7.00581 10.1297 6.61181 9.33566 5.81781C9.02466 5.50781 8.74566 5.21381 8.48866 4.94381C7.69566 4.10981 7.12366 3.50681 6.63866 3.49981H6.63066C6.15166 3.49981 5.40766 4.01181 4.35466 5.06481C4.35766 5.06181 4.35866 5.06081 4.35966 5.06081ZM17.5627 22.4998C15.0707 22.4998 11.8217 20.5158 7.90466 16.6008C3.97266 12.6698 1.98566 9.41081 2.00057 6.91381C2.00966 5.26381 2.87466 4.41881 3.19966 4.10181C3.21666 4.08081 3.27466 4.02381 3.29466 4.00381C4.72866 2.56881 5.69566 1.98881 6.65766 1.99966C7.77466 2.01481 8.56966 2.85081 9.57566 3.90981C9.82466 4.17181 10.0947 4.45681 10.3957 4.75681C11.8557 6.21681 11.4397 7.40781 11.1057 8.36381C10.7417 9.40681 10.4267 10.3068 12.3127 12.1928C14.2007 14.0788 15.1007 13.7638 16.1397 13.3968C17.0967 13.0628 18.2847 12.6448 19.7467 14.1048C20.0427 14.4008 20.3237 14.6678 20.5827 14.9148C21.6467 15.9258 22.4867 16.7248 22.5008 17.8448C22.5127 18.7998 21.9327 19.7728 20.5007 21.2058L19.8667 20.7758L20.4027 21.2998C20.0857 21.6248 19.2417 22.4908 17.5907 22.4998H17.5627Z" fill="black"/>
</svg>
