<svg width="24" height="24" viewBox="0 0 24 24" fill="none" xmlns="http://www.w3.org/2000/svg">
<path fill-rule="evenodd" clip-rule="evenodd" d="M16.6588 2C19.9888 2 22.4998 4.717 22.4998 8.32V15.188C22.4998 17.032 21.8478 18.698 20.6628 19.88C19.5998 20.939 18.2208 21.5 16.6748 21.5H6.82176C5.27876 21.5 3.90076 20.94 2.83676 19.88C1.65176 18.698 0.999756 17.032 0.999756 15.188V8.32C0.999756 4.717 3.51076 2 6.84076 2H16.6588ZM16.6588 3.5H6.84076C4.32576 3.5 2.49976 5.527 2.49976 8.32V15.188C2.49976 16.631 2.99576 17.92 3.89576 18.817C4.67176 19.592 5.68476 20 6.82476 20H16.6588C16.6608 19.998 16.6688 20 16.6748 20C17.8158 20 18.8278 19.592 19.6038 18.817C20.5048 17.92 20.9998 16.631 20.9998 15.188V8.32C20.9998 5.527 19.1738 3.5 16.6588 3.5ZM18.2348 8.1288C18.4958 8.4498 18.4468 8.9218 18.1258 9.1838L13.6818 12.7958C13.1198 13.2418 12.4478 13.4648 11.7768 13.4648C11.1078 13.4648 10.4408 13.2438 9.88276 12.8018L5.39776 9.1858C5.07476 8.9258 5.02476 8.4528 5.28376 8.1308C5.54476 7.8098 6.01676 7.7588 6.33876 8.0178L10.8198 11.6298C11.3828 12.0758 12.1758 12.0758 12.7428 11.6258L17.1788 8.0198C17.5008 7.7568 17.9728 7.8068 18.2348 8.1288Z" fill="black"/>
</svg>
