<svg width="25" height="25" viewBox="0 0 25 25" fill="none" xmlns="http://www.w3.org/2000/svg">
<path fill-rule="evenodd" clip-rule="evenodd" d="M12.791 2.19775C13.507 2.19775 14.203 2.49175 14.702 3.00275C15.2 3.51675 15.475 4.22175 15.454 4.93675C15.456 5.09775 15.509 5.28375 15.605 5.44675C15.764 5.71675 16.015 5.90675 16.313 5.98475C16.611 6.05875 16.923 6.01875 17.188 5.86175C18.468 5.13075 20.097 5.56875 20.828 6.83875L21.451 7.91775C21.467 7.94675 21.481 7.97475 21.493 8.00375C22.155 9.25475 21.713 10.8298 20.483 11.5488C20.304 11.6518 20.159 11.7958 20.059 11.9698C19.904 12.2388 19.861 12.5588 19.939 12.8528C20.019 13.1528 20.21 13.4018 20.479 13.5558C21.086 13.9048 21.539 14.4928 21.72 15.1718C21.901 15.8498 21.802 16.5858 21.449 17.1928L20.785 18.2988C20.054 19.5548 18.425 19.9898 17.158 19.2578C16.989 19.1608 16.794 19.1078 16.6 19.1028H16.594C16.305 19.1028 16.008 19.2258 15.792 19.4408C15.573 19.6598 15.453 19.9518 15.455 20.2618C15.448 21.7308 14.253 22.9188 12.791 22.9188H11.538C10.069 22.9188 8.874 21.7248 8.874 20.2558C8.872 20.0748 8.82 19.8868 8.723 19.7238C8.566 19.4498 8.312 19.2538 8.019 19.1758C7.728 19.0978 7.409 19.1408 7.147 19.2928C6.519 19.6428 5.78 19.7278 5.104 19.5378C4.429 19.3468 3.846 18.8828 3.504 18.2678L2.879 17.1908C2.148 15.9228 2.583 14.2978 3.849 13.5658C4.208 13.3588 4.431 12.9728 4.431 12.5588C4.431 12.1448 4.208 11.7578 3.849 11.5508C2.582 10.8148 2.148 9.18575 2.878 7.91775L3.556 6.80475C4.277 5.55075 5.907 5.10875 7.178 5.83875C7.351 5.94175 7.539 5.99375 7.73 5.99575C8.353 5.99575 8.874 5.48175 8.884 4.84975C8.88 4.15275 9.155 3.48375 9.656 2.97875C10.159 2.47475 10.827 2.19775 11.538 2.19775H12.791ZM12.791 3.69775H11.538C11.228 3.69775 10.938 3.81875 10.719 4.03675C10.501 4.25575 10.382 4.54675 10.384 4.85675C10.363 6.31875 9.168 7.49575 7.721 7.49575C7.257 7.49075 6.81 7.36575 6.422 7.13375C5.877 6.82375 5.165 7.01475 4.846 7.56975L4.169 8.68275C3.859 9.22075 4.049 9.93175 4.601 10.2528C5.42 10.7268 5.931 11.6108 5.931 12.5588C5.931 13.5068 5.42 14.3898 4.599 14.8648C4.05 15.1828 3.86 15.8898 4.178 16.4398L4.809 17.5278C4.965 17.8088 5.22 18.0118 5.515 18.0948C5.809 18.1768 6.133 18.1418 6.403 17.9918C6.8 17.7588 7.262 17.6378 7.726 17.6378C7.955 17.6378 8.184 17.6668 8.408 17.7268C9.084 17.9088 9.671 18.3608 10.019 18.9678C10.245 19.3488 10.37 19.7938 10.374 20.2478C10.374 20.8978 10.896 21.4188 11.538 21.4188H12.791C13.43 21.4188 13.952 20.9008 13.955 20.2618C13.951 19.5558 14.227 18.8848 14.732 18.3798C15.23 17.8818 15.926 17.5828 16.622 17.6028C17.078 17.6138 17.517 17.7368 17.904 17.9568C18.461 18.2758 19.172 18.0858 19.494 17.5358L20.158 16.4288C20.306 16.1738 20.349 15.8538 20.27 15.5588C20.192 15.2638 19.996 15.0078 19.732 14.8568C19.114 14.5008 18.673 13.9268 18.49 13.2388C18.309 12.5638 18.408 11.8268 18.761 11.2198C18.991 10.8198 19.328 10.4828 19.732 10.2508C20.274 9.93375 20.464 9.22475 20.149 8.67275C20.136 8.65075 20.124 8.62775 20.114 8.60375L19.528 7.58775C19.209 7.03275 18.499 6.84175 17.942 7.15875C17.34 7.51475 16.624 7.61675 15.936 7.43575C15.249 7.25775 14.673 6.82275 14.314 6.20875C14.084 5.82475 13.959 5.37775 13.955 4.92275C13.964 4.58075 13.844 4.27375 13.626 4.04875C13.409 3.82475 13.104 3.69775 12.791 3.69775ZM12.1689 9.17185C14.0359 9.17185 15.5549 10.6919 15.5549 12.5589C15.5549 14.4259 14.0359 15.9439 12.1689 15.9439C10.3019 15.9439 8.7829 14.4259 8.7829 12.5589C8.7829 10.6919 10.3019 9.17185 12.1689 9.17185ZM12.1689 10.6719C11.1289 10.6719 10.2829 11.5189 10.2829 12.5589C10.2829 13.5989 11.1289 14.4439 12.1689 14.4439C13.2089 14.4439 14.0549 13.5989 14.0549 12.5589C14.0549 11.5189 13.2089 10.6719 12.1689 10.6719Z" fill="black"/>
</svg>
