<svg width="19" height="19" viewBox="0 0 19 19" fill="none" xmlns="http://www.w3.org/2000/svg">
    <path fill-rule="evenodd" clip-rule="evenodd"
        d="M13.6411 0C16.8464 0 19 2.24995 19 5.59837V13.4016C19 16.75 16.8464 19 13.6411 19H5.35888C2.15363 19 0 16.75 0 13.4016V5.59837C0 2.24995 2.15363 0 5.35888 0H13.6411ZM13.6411 1.32558H5.35888C2.90921 1.32558 1.32558 3.002 1.32558 5.59837V13.4016C1.32558 15.998 2.90921 17.6744 5.35888 17.6744H13.6411C16.0917 17.6744 17.6744 15.998 17.6744 13.4016V5.59837C17.6744 3.002 16.0917 1.32558 13.6411 1.32558ZM9.5 5.59157C9.86586 5.59157 10.1628 5.8885 10.1628 6.25436V8.82837L12.7402 8.82855C13.106 8.82855 13.403 9.12548 13.403 9.49134C13.403 9.8572 13.106 10.1541 12.7402 10.1541L10.1628 10.154V12.7294C10.1628 13.0952 9.86586 13.3922 9.5 13.3922C9.13414 13.3922 8.83721 13.0952 8.83721 12.7294V10.154L6.25984 10.1541C5.89309 10.1541 5.59705 9.8572 5.59705 9.49134C5.59705 9.12548 5.89309 8.82855 6.25984 8.82855L8.83721 8.82837V6.25436C8.83721 5.8885 9.13414 5.59157 9.5 5.59157Z"
        fill="#810081" />
</svg>
