<svg xmlns="http://www.w3.org/2000/svg" xmlns:xlink="http://www.w3.org/1999/xlink" width="22" height="22" viewBox="0 0 22 22">
  <defs>
    <clipPath id="clip-path">
      <rect id="Rectangle_1944" data-name="Rectangle 1944" width="22" height="22" transform="translate(-17 -0.528)" fill="#999" stroke="#fff" stroke-width="0.3"/>
    </clipPath>
  </defs>
  <g id="my_account_icon" transform="translate(17 0.528)" clip-path="url(#clip-path)">
    <g id="user_1_" data-name="user (1)" transform="translate(-15.264 0.361)">
      <path id="Path_39049" data-name="Path 39049" d="M8.446,9.634a5,5,0,0,0,3.568-1.411,4.557,4.557,0,0,0,1.478-3.406,4.558,4.558,0,0,0-1.478-3.406A5,5,0,0,0,8.446,0,5,5,0,0,0,4.878,1.411,4.557,4.557,0,0,0,3.4,4.817,4.557,4.557,0,0,0,4.878,8.223,5,5,0,0,0,8.446,9.634ZM5.746,2.24a3.737,3.737,0,0,1,2.7-1.068,3.737,3.737,0,0,1,2.7,1.068,3.405,3.405,0,0,1,1.119,2.577,3.405,3.405,0,0,1-1.119,2.577,3.737,3.737,0,0,1-2.7,1.068,3.738,3.738,0,0,1-2.7-1.068A3.4,3.4,0,0,1,4.628,4.817,3.4,3.4,0,0,1,5.746,2.24Zm0,0" transform="translate(0.162 0)" fill="#848ca0"/>
      <path id="Path_39050" data-name="Path 39050" d="M17.438,15.379a11.384,11.384,0,0,0-.17-1.264,9.584,9.584,0,0,0-.326-1.271A6.135,6.135,0,0,0,16.4,11.66a4.5,4.5,0,0,0-.825-1.026,3.666,3.666,0,0,0-1.185-.711,4.27,4.27,0,0,0-1.513-.261,1.577,1.577,0,0,0-.82.332c-.246.153-.533.33-.854.526a5.015,5.015,0,0,1-1.106.465,4.487,4.487,0,0,1-2.7,0,5,5,0,0,1-1.1-.465c-.318-.194-.606-.371-.855-.526a1.576,1.576,0,0,0-.82-.332,4.264,4.264,0,0,0-1.513.262,3.663,3.663,0,0,0-1.185.711,4.5,4.5,0,0,0-.825,1.026,6.147,6.147,0,0,0-.547,1.185,9.607,9.607,0,0,0-.325,1.27,11.307,11.307,0,0,0-.17,1.264C.014,15.761,0,16.159,0,16.561a3.243,3.243,0,0,0,1.033,2.513A3.824,3.824,0,0,0,3.7,20H13.785a3.824,3.824,0,0,0,2.663-.927,3.242,3.242,0,0,0,1.033-2.513c0-.4-.014-.8-.042-1.181ZM15.6,18.224a2.577,2.577,0,0,1-1.816.6H3.7a2.577,2.577,0,0,1-1.816-.6,2.116,2.116,0,0,1-.652-1.664c0-.375.013-.745.039-1.1a10.2,10.2,0,0,1,.153-1.138,8.473,8.473,0,0,1,.286-1.12,5,5,0,0,1,.445-.964,3.334,3.334,0,0,1,.606-.759,2.433,2.433,0,0,1,.789-.468,2.944,2.944,0,0,1,.967-.178c.043.022.12.063.244.141.252.157.543.336.865.532A6.229,6.229,0,0,0,7.01,12.1a5.77,5.77,0,0,0,3.46,0,6.236,6.236,0,0,0,1.388-.592c.329-.2.612-.375.864-.532.124-.077.2-.119.244-.141a2.946,2.946,0,0,1,.967.178,2.437,2.437,0,0,1,.788.468,3.325,3.325,0,0,1,.606.759,4.987,4.987,0,0,1,.446.963,8.453,8.453,0,0,1,.286,1.12,10.284,10.284,0,0,1,.153,1.138h0c.026.354.039.724.039,1.1a2.115,2.115,0,0,1-.652,1.663Zm0,0" transform="translate(0 0)" fill="#848ca0"/>
    </g>
  </g>
</svg>
