<svg xmlns="http://www.w3.org/2000/svg" width="30" height="30" viewBox="0 0 30 30">
  <g id="account_icon" transform="translate(0 0)">
    <g id="badge" transform="translate(0 0)">
      <path id="Path_7367" data-name="Path 7367" d="M109.11,19.468,106.5,21.6a.891.891,0,0,0-.315.545l-.544,3.324a.891.891,0,0,1-.736.736l-3.322.544a.892.892,0,0,0-.547.316l-2.132,2.605a.893.893,0,0,1-1.007.269l-3.148-1.19a.894.894,0,0,0-.632,0l-3.148,1.19a.893.893,0,0,1-1.007-.27l-2.132-2.605a.892.892,0,0,0-.547-.316l-3.322-.544a.892.892,0,0,1-.736-.736l-.544-3.324a.89.89,0,0,0-.315-.545l-2.607-2.133a.89.89,0,0,1-.269-1l1.191-3.152a.89.89,0,0,0,0-.629l-1.191-3.152a.89.89,0,0,1,.269-1L82.371,8.4a.891.891,0,0,0,.315-.545l.544-3.324a.891.891,0,0,1,.736-.736l3.322-.544a.892.892,0,0,0,.547-.316L89.966.325A.893.893,0,0,1,90.973.056l3.148,1.19a.893.893,0,0,0,.632,0L97.9.056a.893.893,0,0,1,1.007.269l2.132,2.605a.892.892,0,0,0,.547.316l3.322.544a.892.892,0,0,1,.736.736l.544,3.324a.89.89,0,0,0,.315.545l2.607,2.133a.89.89,0,0,1,.269,1l-1.191,3.152a.889.889,0,0,0,0,.629l1.191,3.152A.89.89,0,0,1,109.11,19.468Z" transform="translate(-79.437 0.002)" fill="rgba(244,116,88,0.19)"/>
      <ellipse id="Ellipse_255" data-name="Ellipse 255" cx="10.256" cy="10.272" rx="10.256" ry="10.272" transform="translate(4.788 4.868)" fill="#fff"/>
      <g id="user_3_" data-name="user (3)" transform="translate(8.429 7.588)">
        <g id="Group_49083" data-name="Group 49083" transform="translate(0 0)">
          <path id="Path_77576" data-name="Path 77576" d="M10.873,8.235a6.345,6.345,0,0,0-2.42-1.518,3.682,3.682,0,1,0-4.167,0A6.379,6.379,0,0,0,0,12.738H1a5.374,5.374,0,1,1,10.748,0h1A6.328,6.328,0,0,0,10.873,8.235Zm-4.5-1.865A2.687,2.687,0,1,1,9.056,3.682,2.69,2.69,0,0,1,6.369,6.369Z" transform="translate(0)" fill="#707070"/>
        </g>
      </g>
    </g>
  </g>
</svg>
