<svg width="10" height="13" viewBox="0 0 10 13" fill="none" xmlns="http://www.w3.org/2000/svg">
<path d="M0.485352 13V0.203125H4.66895C6.05762 0.203125 7.10059 0.490234 7.79785 1.06445C8.50098 1.63867 8.85254 2.48828 8.85254 3.61328C8.85254 4.21094 8.68262 4.74121 8.34277 5.2041C8.00293 5.66113 7.54004 6.01562 6.9541 6.26758C7.64551 6.46094 8.19043 6.83008 8.58887 7.375C8.99316 7.91406 9.19531 8.55859 9.19531 9.30859C9.19531 10.457 8.82324 11.3594 8.0791 12.0156C7.33496 12.6719 6.2832 13 4.92383 13H0.485352ZM2.17285 7.01465V11.6201H4.95898C5.74414 11.6201 6.3623 11.418 6.81348 11.0137C7.27051 10.6035 7.49902 10.041 7.49902 9.32617C7.49902 7.78516 6.66113 7.01465 4.98535 7.01465H2.17285ZM2.17285 5.66113H4.72168C5.45996 5.66113 6.04883 5.47656 6.48828 5.10742C6.93359 4.73828 7.15625 4.2373 7.15625 3.60449C7.15625 2.90137 6.95117 2.3916 6.54102 2.0752C6.13086 1.75293 5.50684 1.5918 4.66895 1.5918H2.17285V5.66113Z" fill="white"/>
<path d="M0.485352 13H0.285352V13.2H0.485352V13ZM0.485352 0.203125V0.00312519H0.285352V0.203125H0.485352ZM7.79785 1.06445L7.67071 1.21884L7.67134 1.21936L7.79785 1.06445ZM8.34277 5.2041L8.50327 5.32344L8.50399 5.32246L8.34277 5.2041ZM6.9541 6.26758L6.8751 6.08384L6.35469 6.30762L6.90024 6.46019L6.9541 6.26758ZM8.58887 7.375L8.42741 7.49306L8.42887 7.495L8.58887 7.375ZM2.17285 7.01465V6.81465H1.97285V7.01465H2.17285ZM2.17285 11.6201H1.97285V11.8201H2.17285V11.6201ZM6.81348 11.0137L6.94695 11.1626L6.94706 11.1625L6.81348 11.0137ZM2.17285 5.66113H1.97285V5.86113H2.17285V5.66113ZM6.48828 5.10742L6.36064 4.95344L6.35964 4.95428L6.48828 5.10742ZM6.54102 2.0752L6.41745 2.23247L6.41885 2.23355L6.54102 2.0752ZM2.17285 1.5918V1.3918H1.97285V1.5918H2.17285ZM0.685352 13V0.203125H0.285352V13H0.685352ZM0.485352 0.403125H4.66895V0.00312519H0.485352V0.403125ZM4.66895 0.403125C6.03496 0.403125 7.02407 0.686312 7.67071 1.21884L7.92499 0.910067C7.1771 0.294157 6.08027 0.00312519 4.66895 0.00312519V0.403125ZM7.67134 1.21936C8.317 1.74665 8.65254 2.53259 8.65254 3.61328H9.05254C9.05254 2.44397 8.68495 1.5307 7.92436 0.909547L7.67134 1.21936ZM8.65254 3.61328C8.65254 4.17022 8.49513 4.65864 8.18156 5.08574L8.50399 5.32246C8.87011 4.82379 9.05254 4.25166 9.05254 3.61328H8.65254ZM8.18228 5.08476C7.86589 5.51025 7.43264 5.8441 6.8751 6.08384L7.03311 6.45131C7.64744 6.18715 8.13997 5.81201 8.50327 5.32344L8.18228 5.08476ZM6.90024 6.46019C7.55138 6.64229 8.05721 6.98673 8.42742 7.49305L8.75031 7.25695C8.32365 6.67342 7.73964 6.27959 7.00797 6.07497L6.90024 6.46019ZM8.42887 7.495C8.80427 7.99554 8.99531 8.59672 8.99531 9.30859H9.39531C9.39531 8.52047 9.18206 7.83258 8.74887 7.255L8.42887 7.495ZM8.99531 9.30859C8.99531 10.4096 8.64094 11.2535 7.94682 11.8656L8.21139 12.1656C9.00554 11.4653 9.39531 10.5044 9.39531 9.30859H8.99531ZM7.94682 11.8656C7.25082 12.4794 6.2526 12.8 4.92383 12.8V13.2C6.31381 13.2 7.4191 12.8643 8.21139 12.1656L7.94682 11.8656ZM4.92383 12.8H0.485352V13.2H4.92383V12.8ZM1.97285 7.01465V11.6201H2.37285V7.01465H1.97285ZM2.17285 11.8201H4.95898V11.4201H2.17285V11.8201ZM4.95898 11.8201C5.77843 11.8201 6.44929 11.6086 6.94695 11.1626L6.68 10.8647C6.27532 11.2274 5.70985 11.4201 4.95898 11.4201V11.8201ZM6.94706 11.1625C7.45343 10.7081 7.69902 10.0876 7.69902 9.32617H7.29902C7.29902 9.99447 7.08759 10.4989 6.67989 10.8648L6.94706 11.1625ZM7.69902 9.32617C7.69902 8.52032 7.47917 7.88044 7.00598 7.44531C6.53597 7.0131 5.85011 6.81465 4.98535 6.81465V7.21465C5.79638 7.21465 6.36735 7.40145 6.73523 7.73975C7.09993 8.07512 7.29902 8.591 7.29902 9.32617H7.69902ZM4.98535 6.81465H2.17285V7.21465H4.98535V6.81465ZM2.17285 5.86113H4.72168V5.46113H2.17285V5.86113ZM4.72168 5.86113C5.49327 5.86113 6.13215 5.66777 6.61692 5.26056L6.35964 4.95428C5.96551 5.28536 5.42665 5.46113 4.72168 5.46113V5.86113ZM6.61592 5.2614C7.11175 4.85038 7.35625 4.29049 7.35625 3.60449H6.95625C6.95625 4.18412 6.75544 4.62618 6.36064 4.95345L6.61592 5.2614ZM7.35625 3.60449C7.35625 2.86312 7.13858 2.28358 6.66318 1.91684L6.41885 2.23355C6.76376 2.49962 6.95625 2.93961 6.95625 3.60449H7.35625ZM6.66458 1.91793C6.20346 1.55562 5.52639 1.3918 4.66895 1.3918V1.7918C5.48728 1.7918 6.05826 1.95024 6.41745 2.23246L6.66458 1.91793ZM4.66895 1.3918H2.17285V1.7918H4.66895V1.3918ZM1.97285 1.5918V5.66113H2.37285V1.5918H1.97285Z" fill="black"/>
</svg>
