<svg xmlns="http://www.w3.org/2000/svg" width="85.319" height="85.451" viewBox="0 0 85.319 85.451">
  <path id="bg_profile_icon" d="M163.826,55.456l-7.414,6.076a2.538,2.538,0,0,0-.9,1.553l-1.547,9.469a2.537,2.537,0,0,1-2.094,2.1L142.428,76.2a2.537,2.537,0,0,0-1.555.9l-6.062,7.421a2.537,2.537,0,0,1-2.864.768l-8.952-3.39a2.537,2.537,0,0,0-1.8,0l-8.952,3.39a2.538,2.538,0,0,1-2.864-.768L103.319,77.1a2.537,2.537,0,0,0-1.555-.9l-9.448-1.548a2.537,2.537,0,0,1-2.094-2.1l-1.546-9.469a2.537,2.537,0,0,0-.9-1.553l-7.414-6.076A2.537,2.537,0,0,1,79.6,52.6l3.388-8.977a2.538,2.538,0,0,0,0-1.792L79.6,32.85a2.538,2.538,0,0,1,.765-2.859l7.414-6.076a2.539,2.539,0,0,0,.9-1.553l1.546-9.469a2.537,2.537,0,0,1,2.094-2.1l9.448-1.548a2.537,2.537,0,0,0,1.555-.9L109.382.93a2.537,2.537,0,0,1,2.864-.768l8.952,3.39a2.537,2.537,0,0,0,1.8,0L131.948.163a2.538,2.538,0,0,1,2.864.768l6.063,7.421a2.537,2.537,0,0,0,1.555.9l9.448,1.548a2.537,2.537,0,0,1,2.094,2.1l1.546,9.469a2.536,2.536,0,0,0,.9,1.553l7.414,6.076a2.538,2.538,0,0,1,.766,2.859L161.2,41.828a2.537,2.537,0,0,0,0,1.792l3.388,8.977A2.538,2.538,0,0,1,163.826,55.456Z" transform="translate(-79.437 0.002)" fill="rgba(244,116,88,0.19)"/>
</svg>
