<svg width="11" height="14" viewBox="0 0 11 14" fill="none" xmlns="http://www.w3.org/2000/svg">
<path d="M7.61062 0C9.47375 0 10.9794 0.748971 11 2.6529V13.2785C11 13.3975 10.9725 13.5165 10.9175 13.6215C10.8281 13.7895 10.6769 13.9155 10.4913 13.9715C10.3125 14.0275 10.1131 13.9995 9.94812 13.9015L5.49312 11.6335L1.03125 13.9015C0.928813 13.9568 0.81125 13.9925 0.694375 13.9925C0.309375 13.9925 0 13.6705 0 13.2785V2.6529C0 0.748971 1.5125 0 3.36875 0H7.61062ZM8.07812 4.22784H2.90125C2.60563 4.22784 2.365 4.47283 2.365 4.78081C2.365 5.0881 2.60563 5.33379 2.90125 5.33379H8.07812C8.37375 5.33379 8.61438 5.0881 8.61438 4.78081C8.61438 4.47283 8.37375 4.22784 8.07812 4.22784Z" fill="#B466B4"/>
</svg>
