<svg width="16" height="16" viewBox="0 0 16 16" fill="none" xmlns="http://www.w3.org/2000/svg">
<path fill-rule="evenodd" clip-rule="evenodd" d="M8.00128 0C10.14 0 12.1499 0.831488 13.6596 2.34186C16.7801 5.46236 16.7801 10.5391 13.6596 13.6596C12.1298 15.1901 10.07 16 7.98341 16C6.84595 16 5.70104 15.7596 4.62983 15.2638C4.3142 15.1372 4.01867 15.0181 3.80651 15.0181C3.56234 15.0196 3.23406 15.1328 2.91694 15.2422C2.26632 15.4655 1.4564 15.7439 0.857145 15.1469C0.260126 14.5492 0.535559 13.7415 0.757394 13.0917C0.866823 12.7716 0.979229 12.4411 0.979229 12.1909C0.979229 11.9855 0.880222 11.7235 0.728362 11.346C-0.665925 8.33498 -0.0212625 4.70606 2.34374 2.34261C3.85341 0.832232 5.86258 0 8.00128 0ZM8.00202 1.11659C6.16109 1.11659 4.43182 1.8327 3.13282 3.13241C1.09759 5.16609 0.543747 8.28882 1.75342 10.9039C1.92761 11.3349 2.09585 11.7547 2.09585 12.1909C2.09585 12.6264 1.94622 13.0649 1.81446 13.4519C1.70578 13.7705 1.54126 14.2514 1.64697 14.3571C1.75044 14.4643 2.23431 14.2953 2.55366 14.1859C2.93704 14.0549 3.37177 13.9045 3.80279 13.9016C4.23455 13.9016 4.64174 14.0653 5.07276 14.2388C7.71319 15.4596 10.836 14.9043 12.8705 12.8706C15.5548 10.1848 15.5548 5.81595 12.8705 3.13166C11.5707 1.83195 9.84221 1.11659 8.00202 1.11659ZM10.9401 7.56505C11.3511 7.56505 11.6846 7.89779 11.6846 8.30944C11.6846 8.72109 11.3511 9.05384 10.9401 9.05384C10.5292 9.05384 10.1928 8.72109 10.1928 8.30944C10.1928 7.89779 10.5225 7.56505 10.9334 7.56505H10.9401ZM7.95595 7.56505C8.36686 7.56505 8.70036 7.89779 8.70036 8.30944C8.70036 8.72109 8.36686 9.05384 7.95595 9.05384C7.54503 9.05384 7.20855 8.72109 7.20855 8.30944C7.20855 7.89779 7.53758 7.56505 7.94925 7.56505H7.95595ZM4.97144 7.56505C5.38236 7.56505 5.71586 7.89779 5.71586 8.30944C5.71586 8.72109 5.38236 9.05384 4.97144 9.05384C4.56053 9.05384 4.22405 8.72109 4.22405 8.30944C4.22405 7.89779 4.55383 7.56505 4.96474 7.56505H4.97144Z" fill="black"/>
</svg>
