<svg id="current_location_icon" xmlns="http://www.w3.org/2000/svg" width="24" height="24" viewBox="0 0 24 24">
  <path id="Path_38897" data-name="Path 38897" d="M12.083,22.167A10.083,10.083,0,1,1,22.167,12.083,10.095,10.095,0,0,1,12.083,22.167Zm0-18.654a8.571,8.571,0,1,0,8.571,8.571A8.58,8.58,0,0,0,12.083,3.512Z" transform="translate(-0.083 -0.083)" fill="#5b7d1f"/>
  <path id="Path_38898" data-name="Path 38898" d="M11.969,4.792a.719.719,0,0,1-.719-.719V.719a.719.719,0,0,1,1.438,0V4.073A.719.719,0,0,1,11.969,4.792Z" transform="translate(0.031)" fill="#5b7d1f"/>
  <path id="Path_38899" data-name="Path 38899" d="M23.073,12.688H19.719a.719.719,0,0,1,0-1.437h3.354a.719.719,0,0,1,0,1.438Z" transform="translate(0.208 0.031)" fill="#5b7d1f"/>
  <path id="Path_38900" data-name="Path 38900" d="M11.969,23.792a.719.719,0,0,1-.719-.719V19.719a.719.719,0,0,1,1.438,0v3.354A.719.719,0,0,1,11.969,23.792Z" transform="translate(0.031 0.208)" fill="#5b7d1f"/>
  <path id="Path_38901" data-name="Path 38901" d="M4.073,12.688H.719a.719.719,0,0,1,0-1.437H4.073a.719.719,0,0,1,0,1.438Z" transform="translate(0 0.031)" fill="#5b7d1f"/>
  <path id="Path_38902" data-name="Path 38902" d="M11.875,14.75a2.875,2.875,0,1,1,2.875-2.875A2.879,2.879,0,0,1,11.875,14.75Zm0-4.312a1.438,1.438,0,1,0,1.438,1.438A1.439,1.439,0,0,0,11.875,10.438Z" transform="translate(0.125 0.125)" fill="#5b7d1f"/>
</svg>
