<svg width="11" height="14" viewBox="0 0 11 14" fill="none" xmlns="http://www.w3.org/2000/svg">
<path fill-rule="evenodd" clip-rule="evenodd" d="M7.55391 0C9.74371 0 11 1.12755 11 3.09186V12.8536C11 13.2633 10.7973 13.632 10.4564 13.8382C10.1168 14.045 9.70755 14.049 9.36411 13.8476L5.51646 11.5864L1.63331 13.8523C1.46546 13.9503 1.28147 14 1.09684 14C0.906391 14 0.715946 13.9469 0.542931 13.8408C0.202711 13.6347 0 13.266 0 12.857V2.96896C0 1.08188 1.25694 0 3.44868 0H7.55391ZM7.55391 1.00734H3.44868C1.8031 1.00734 0.968367 1.66681 0.968367 2.96896V12.857C0.968367 12.9201 1.00323 12.9544 1.03228 12.9718C1.06133 12.9906 1.10717 13.0041 1.1601 12.9732L5.28018 10.569C5.42737 10.4837 5.60749 10.483 5.75533 10.5697L9.8399 12.9698C9.89348 13.0021 9.93932 12.9873 9.96837 12.9692C9.99742 12.951 10.0316 12.9168 10.0316 12.8536L10.0314 3.01533C10.0265 2.43734 9.91901 1.00734 7.55391 1.00734ZM7.83719 4.51859C8.10445 4.51859 8.32137 4.74423 8.32137 5.02226C8.32137 5.30028 8.10445 5.52593 7.83719 5.52593H3.11285C2.84558 5.52593 2.62866 5.30028 2.62866 5.02226C2.62866 4.74423 2.84558 4.51859 3.11285 4.51859H7.83719Z" fill="black"/>
</svg>
