<svg width="12" height="12" viewBox="0 0 12 12" fill="none" xmlns="http://www.w3.org/2000/svg">
<path d="M1.00003 12C0.802281 11.9999 0.608983 11.9412 0.444573 11.8314C0.280163 11.7215 0.152023 11.5653 0.0763533 11.3826C0.000683263 11.1999 -0.01912 10.9989 0.0194476 10.8049C0.0580151 10.611 0.153222 10.4328 0.293031 10.293L10.293 0.292956C10.4811 0.108246 10.7345 0.00528618 10.9982 0.00647999C11.2618 0.00767381 11.5142 0.112924 11.7007 0.299331C11.8871 0.485737 11.9923 0.738215 11.9935 1.00183C11.9947 1.26545 11.8917 1.51887 11.707 1.70696L1.70703 11.707C1.6143 11.8 1.5041 11.8737 1.38277 11.924C1.26144 11.9743 1.13137 12.0001 1.00003 12Z" fill="black"/>
<path d="M11 12C10.8687 12.0001 10.7386 11.9743 10.6173 11.924C10.496 11.8737 10.3858 11.8 10.293 11.707L0.293031 1.70696C0.10832 1.51887 0.00536104 1.26545 0.00655486 1.00183C0.00774867 0.738215 0.112999 0.485737 0.299405 0.299331C0.485812 0.112924 0.73829 0.00767381 1.00191 0.00647999C1.26552 0.00528618 1.51894 0.108246 1.70703 0.292956L11.707 10.293C11.8468 10.4328 11.942 10.611 11.9806 10.8049C12.0192 10.9989 11.9994 11.1999 11.9237 11.3826C11.848 11.5653 11.7199 11.7215 11.5555 11.8314C11.3911 11.9412 11.1978 11.9999 11 12Z" fill="black"/>
</svg>
