<svg xmlns="http://www.w3.org/2000/svg" width="12" height="12" viewBox="0 0 12 12">
  <g id="camera_icon" transform="translate(0 1)">
    <rect id="Rectangle_2069" data-name="Rectangle 2069" width="12" height="12" transform="translate(0 -1)" fill="none"/>
    <g id="Group_49485" data-name="Group 49485">
      <path id="Path_39006" data-name="Path 39006" d="M11.194,46.22a1.245,1.245,0,0,0-.914-.385H8.454v-.022a.988.988,0,0,0-.3-.715,1.007,1.007,0,0,0-.715-.3h-3.3a1.015,1.015,0,0,0-1.024,1.013v.022H1.3a1.245,1.245,0,0,0-.914.385A1.309,1.309,0,0,0,0,47.134v5.482a1.245,1.245,0,0,0,.385.914,1.309,1.309,0,0,0,.914.385h8.982a1.245,1.245,0,0,0,.914-.385,1.309,1.309,0,0,0,.385-.914V47.134A1.245,1.245,0,0,0,11.194,46.22Zm-.187,6.4H11a.714.714,0,0,1-.715.715H1.3a.714.714,0,0,1-.715-.715V47.134a.714.714,0,0,1,.715-.715H3.423a.3.3,0,0,0,.3-.3V45.8a.414.414,0,0,1,.429-.429H7.441a.414.414,0,0,1,.429.429v.319a.3.3,0,0,0,.3.3h2.124a.714.714,0,0,1,.715.715Z" transform="translate(0 -44.8)" fill="#f47458"/>
      <path id="Path_39007" data-name="Path 39007" d="M114.708,130.8a2.706,2.706,0,1,0,1.915.793A2.713,2.713,0,0,0,114.708,130.8Zm1.5,4.216a2.126,2.126,0,0,1-2.994,0,2.1,2.1,0,0,1-.616-1.5,2.151,2.151,0,0,1,.616-1.5,2.1,2.1,0,0,1,1.5-.616,2.151,2.151,0,0,1,1.5.616,2.1,2.1,0,0,1,.616,1.5A2.06,2.06,0,0,1,116.2,135.016Z" transform="translate(-108.918 -128.433)" fill="#f47458"/>
      <circle id="Ellipse_240" data-name="Ellipse 240" cx="0.539" cy="0.539" r="0.539" transform="translate(9.17 2.356)" fill="#f47458"/>
    </g>
  </g>
</svg>
