<svg xmlns="http://www.w3.org/2000/svg" width="28.387" height="28" viewBox="0 0 28.387 28">
  <g id="cash_icon" transform="translate(1 2)">
    <rect id="Rectangle_2061" data-name="Rectangle 2061" width="28" height="28" transform="translate(-1 -2)" fill="none"/>
    <g id="Group_49482" data-name="Group 49482" transform="translate(-1 -1)">
      <path id="XMLID_501_" d="M162.029,180.538a3.018,3.018,0,1,0-2.134-.884A3,3,0,0,0,162.029,180.538Zm-1.35-4.368a1.909,1.909,0,1,1,0,2.7A1.9,1.9,0,0,1,160.679,176.17Z" transform="translate(-150.194 -165.686)" fill="#f47458"/>
      <path id="XMLID_504_" d="M28.31,34.495l-1.679-6.267.4-.23a2.229,2.229,0,0,0,.816-3.044L23.659,17.7a2.228,2.228,0,0,0-3.044-.816l-1.768,1.021-1.766-1.766a2.231,2.231,0,0,0-3.152,0L9.013,21.059a.554.554,0,1,0,.784.784l4.916-4.916a1.12,1.12,0,0,1,1.583,0l5.92,5.919a1.121,1.121,0,0,1,0,1.583L8.939,37.707a1.121,1.121,0,0,1-1.583,0l-5.92-5.92a1.121,1.121,0,0,1,0-1.583l4.832-4.832a.554.554,0,0,0-.784-.784L.652,29.42a2.231,2.231,0,0,0,0,3.152l4.22,4.22,1,3.716A2.227,2.227,0,0,0,8.6,42.084l18.137-4.86a2.228,2.228,0,0,0,1.576-2.729ZM23,25.213a2.231,2.231,0,0,0,0-3.152L19.659,18.72l1.51-.872a1.121,1.121,0,0,1,1.529.41l4.186,7.25a1.12,1.12,0,0,1-.41,1.529L13.939,34.275Zm4.127,10.418a1.112,1.112,0,0,1-.68.522L8.31,41.013a1.121,1.121,0,0,1-1.371-.792l-.5-1.861.131.131a2.231,2.231,0,0,0,3.152,0L10.909,37.3l14.728-8.5,1.6,5.98A1.112,1.112,0,0,1,27.127,35.631Z" transform="translate(0 -15.491)" fill="#f47458"/>
      <path id="XMLID_506_" d="M128.355,145.916a.555.555,0,1,0-.392-.162A.558.558,0,0,0,128.355,145.916Z" transform="translate(-120.715 -137.637)" fill="#f47458"/>
    </g>
  </g>
</svg>
