<svg id="congratulations_icon" xmlns="http://www.w3.org/2000/svg" width="59.334" height="59.334" viewBox="0 0 59.334 59.334">
  <path id="Path_39203" data-name="Path 39203" d="M29.667,0A29.667,29.667,0,1,0,59.334,29.667,29.7,29.7,0,0,0,29.667,0Zm0,0" fill="#00b01d" opacity="0.52"/>
  <path id="Path_39205" data-name="Path 39205" d="M24.325,0A24.325,24.325,0,1,0,48.65,24.325,24.352,24.352,0,0,0,24.325,0Zm0,0" transform="translate(5.342 5.342)" fill="#00b01d"/>
  <path id="Path_39204" data-name="Path 39204" d="M161.908,168.395,150.232,180.07a1.794,1.794,0,0,1-2.54,0l-5.838-5.838a1.8,1.8,0,0,1,2.54-2.54l4.568,4.568,10.406-10.405a1.8,1.8,0,1,1,2.54,2.54Zm0,0" transform="translate(-120.978 -143.295)" fill="#fafafa"/>
</svg>
