<svg xmlns="http://www.w3.org/2000/svg" width="25" height="25.326" viewBox="0 0 25 25.326"><defs><style>.a{fill:#fff;}</style></defs><g transform="translate(0 0)"><path class="a" d="M302.9,417.6a2.12,2.12,0,0,1,2.1,2.155,2.1,2.1,0,1,1-2.1-2.155Zm0,3.23a1.036,1.036,0,0,0,1.023-1.08,1.025,1.025,0,1,0-1.023,1.08Z" transform="translate(-294.825 -396.585)"/><path class="a" d="M80.8,417.6a2.12,2.12,0,0,1,2.1,2.155,2.154,2.154,0,0,1-2.1,2.155,2.12,2.12,0,0,1-2.1-2.155A2.154,2.154,0,0,1,80.8,417.6Zm0,3.23a1.036,1.036,0,0,0,1.023-1.08,1.073,1.073,0,0,0-1.023-1.08,1.036,1.036,0,0,0-1.023,1.08A1.066,1.066,0,0,0,80.8,420.83Z" transform="translate(-61.246 -396.585)"/><path class="a" d="M17.113,11l.837,3.287H39.1L35.2,25.849a2.68,2.68,0,0,1,2.284,2.719,2.726,2.726,0,0,1-2.693,2.8H20.132V30.346H34.789a1.65,1.65,0,0,0,1.618-1.726,1.683,1.683,0,0,0-1.618-1.726H20.08L16.255,12.075H14.1V11h3.013Zm3.773,14.818h13.2l3.5-10.456H18.245Z" transform="translate(-14.1 -11)"/><rect class="a" width="1.08" height="6.088" transform="translate(17.077 6.895)"/><rect class="a" width="1.08" height="6.088" transform="translate(13.247 6.895)"/><rect class="a" width="1.08" height="6.088" transform="translate(9.422 6.895)"/></g></svg>