<svg xmlns="http://www.w3.org/2000/svg" width="23.158" height="17.755" viewBox="0 0 23.158 17.755"><g transform="translate(0 -59.733)"><g transform="translate(0 59.733)"><path d="M22,59.733H1.158A1.158,1.158,0,0,0,0,60.891V76.33a1.158,1.158,0,0,0,1.158,1.158H22a1.158,1.158,0,0,0,1.158-1.158V60.891A1.158,1.158,0,0,0,22,59.733Zm.386,16.6a.386.386,0,0,1-.386.386H1.158a.386.386,0,0,1-.386-.386V60.891a.386.386,0,0,1,.386-.386H22a.386.386,0,0,1,.386.386Z" transform="translate(0 -59.733)"/><path d="M53.851,93.867a.386.386,0,0,0-.282.089l-8.9,7.48a.772.772,0,0,1-.994,0l-8.9-7.48a.386.386,0,0,0-.5.591l8.9,7.48a1.542,1.542,0,0,0,1.986,0l8.9-7.48a.386.386,0,0,0-.215-.68Z" transform="translate(-32.589 -92.321)"/><path d="M39.886,272.934a.386.386,0,0,0-.372.12l-5.4,5.79a.386.386,0,1,0,.564.526l5.4-5.79a.386.386,0,0,0-.192-.646Z" transform="translate(-32.462 -263.282)"/><path d="M341.875,273.054a.386.386,0,1,0-.564.526l5.4,5.79a.386.386,0,0,0,.564-.526Z" transform="translate(-325.768 -263.282)"/></g></g></svg>