<svg xmlns="http://www.w3.org/2000/svg" width="20" height="20" viewBox="0 0 20 20">
  <g id="edit_icon" transform="translate(0 0.504)">
    <rect id="Rectangle_2066" data-name="Rectangle 2066" width="20" height="20" transform="translate(0 -0.504)" fill="none"/>
    <path id="Path_77601" data-name="Path 77601" d="M172.607,403.561H160.66a.664.664,0,1,1,0-1.327h11.947a.664.664,0,0,1,0,1.327Zm0,0" transform="translate(-153.358 -385.073)" fill="#848ca0"/>
    <path id="Path_77602" data-name="Path 77602" d="M.664,18.489a.664.664,0,0,1-.646-.816L.983,13.58a.657.657,0,0,1,.177-.317l12.2-12.2a2.039,2.039,0,0,1,2.816,0L17.43,2.312a1.991,1.991,0,0,1,0,2.816l-12.2,12.2a.663.663,0,0,1-.317.177l-4.093.965a.645.645,0,0,1-.153.018Zm1.567-4.421-.675,2.865,2.866-.675L16.491,4.189a.662.662,0,0,0,0-.938L15.239,2A.679.679,0,0,0,14.3,2Zm2.526,2.793h0Zm0,0" transform="translate(0 0)" fill="#848ca0"/>
    <path id="Path_77603" data-name="Path 77603" d="M256.656,78.357a.658.658,0,0,1-.469-.195l-3.129-3.129a.664.664,0,0,1,.939-.939l3.129,3.129a.664.664,0,0,1-.47,1.134Zm0,0" transform="translate(-242.373 -70.359)" fill="#848ca0"/>
  </g>
</svg>
