<svg xmlns="http://www.w3.org/2000/svg" width="24" height="24" viewBox="0 0 24 24">
  <g id="Feeds_list_iocn" transform="translate(0 0)">
    <path id="file" d="M12.938,17.531a.937.937,0,0,1-.937.938H6.469a.938.938,0,0,1,0-1.875H12A.937.937,0,0,1,12.938,17.531ZM24,5.632V16.609a5.353,5.353,0,0,1-1.578,3.81l-2,2A5.353,5.353,0,0,1,16.609,24H5.632A5.629,5.629,0,0,1,0,18.368V5.632A5.629,5.629,0,0,1,5.632,0H18.368A5.629,5.629,0,0,1,24,5.632ZM22,17.547H19.422a1.877,1.877,0,0,0-1.875,1.875V22a3.494,3.494,0,0,0,1.547-.9l2-2A3.494,3.494,0,0,0,22,17.547Zm.126-11.915a3.755,3.755,0,0,0-3.757-3.757H5.632A3.755,3.755,0,0,0,1.875,5.632V18.368a3.755,3.755,0,0,0,3.757,3.757h10.04v-2.7a3.754,3.754,0,0,1,3.75-3.75h2.7Zm-4.594,5.43H6.469a.938.938,0,1,0,0,1.875H17.531a.938.938,0,1,0,0-1.875Zm0-5.531H6.469a.937.937,0,1,0,0,1.875H17.531a.937.937,0,1,0,0-1.875Z" transform="translate(0)" fill="#707070"/>
  </g>
</svg>
