<svg xmlns="http://www.w3.org/2000/svg" width="22" height="22" viewBox="0 0 22 22">
    <g id="my_groups_icon" transform="translate(0 -1.108)">
        <rect id="Rectangle_2070" data-name="Rectangle 2070" width="22" height="22"
            transform="translate(0 1.108)" fill="none" />
        <g id="group_2_" data-name="group (2)" transform="translate(1 -31.337)">
            <path id="Path_77612" data-name="Path 77612"
                d="M377.872,313.443a13.03,13.03,0,0,0-5.537-1.653,13.114,13.114,0,0,1,1.19.576,3.017,3.017,0,0,1,1.061,1.052,11.548,11.548,0,0,1,2.668,1.1.6.6,0,0,1,.283.527v2.887h-2.483v1.241h3.1a.62.62,0,0,0,.621-.621v-3.507A1.844,1.844,0,0,0,377.872,313.443Z"
                transform="translate(-358.916 -267.349)" fill="#848ca0" />
            <path id="Path_77613" data-name="Path 77613"
                d="M13.991,312.579a13.543,13.543,0,0,0-13.084,0,1.845,1.845,0,0,0-.907,1.6v3.507a.62.62,0,0,0,.621.621H14.277a.62.62,0,0,0,.621-.621v-3.508A1.844,1.844,0,0,0,13.991,312.579Zm-.335,4.491H1.242v-2.887a.6.6,0,0,1,.284-.527,12.281,12.281,0,0,1,11.847,0,.6.6,0,0,1,.284.527Z"
                transform="translate(0 -266.486)" fill="#848ca0" />
            <path id="Path_77614" data-name="Path 77614"
                d="M310.755,35.716a2.967,2.967,0,0,1,.309-.029,3.1,3.1,0,1,1,0,6.207,2.967,2.967,0,0,1-.309-.029,5.6,5.6,0,0,1-.939,1.065,4.241,4.241,0,0,0,1.248.206,4.345,4.345,0,1,0,0-8.69,4.241,4.241,0,0,0-1.249.206A5.6,5.6,0,0,1,310.755,35.716Z"
                transform="translate(-298.65)" fill="#848ca0" />
            <path id="Path_77615" data-name="Path 77615"
                d="M90.461,43.136a4.345,4.345,0,1,0-4.345-4.345A4.35,4.35,0,0,0,90.461,43.136Zm0-7.449a3.1,3.1,0,1,1-3.1,3.1A3.107,3.107,0,0,1,90.461,35.687Z"
                transform="translate(-83.012 -0.001)" fill="#848ca0" />
        </g>
    </g>
</svg>
