<svg xmlns="http://www.w3.org/2000/svg" width="72" height="72" viewBox="0 0 72 72"><defs><style>.a{fill:#dd4b39;}.b{fill:#fff;}</style></defs><path class="a" d="M36,0A36,36,0,1,1,0,36,36.106,36.106,0,0,1,36,0Z"/><g transform="translate(13.034 21.451)"><path class="b" d="M194.987,121.079v4.181h4.18v4.181h-4.18v4.181h-4.181V129.44h-4.181V125.26h4.181v-4.181Z" transform="translate(-153.211 -112.804)"/><path class="b" d="M59.8,113.638a14.933,14.933,0,0,1,.232-20.9,14.329,14.329,0,0,1,15.561-3.019l2.09,1.161L80,92.5,76.286,96.22l-1.393-.929a8.869,8.869,0,0,0-10.916,1.393,9.75,9.75,0,0,0,0,13.471c3.484,3.716,9.755,3.716,13.006,0a7.412,7.412,0,0,0,2.09-3.716v-.465H70.712V101.33H83.95l.232,1.161v3.251a12.958,12.958,0,0,1-3.484,8.129A15.391,15.391,0,0,1,59.8,113.638Z" transform="translate(-55.644 -88.641)"/></g></svg>