<svg width="19" height="17" viewBox="0 0 19 17" fill="none" xmlns="http://www.w3.org/2000/svg">
<path d="M9.6421 16.4332C9.56524 16.4798 9.47734 16.5044 9.38776 16.5044C9.29818 16.5044 9.21028 16.4798 9.13342 16.4332C8.70505 16.1791 -1.37831 10.1285 0.619622 4.53852C1.64034 1.68935 3.39062 0.835619 4.67907 0.618798C5.52882 0.505862 6.39276 0.586904 7.20754 0.85598C8.02232 1.12506 8.76727 1.57534 9.38776 2.17381C10.0083 1.57534 10.7532 1.12506 11.568 0.85598C12.3828 0.586904 13.2467 0.505862 14.0965 0.618798C15.3849 0.835619 17.1352 1.68935 18.1559 4.53852C20.1538 10.1285 10.0705 16.1791 9.6421 16.4332Z" fill="#B466B4"/>
</svg>
