<svg xmlns="http://www.w3.org/2000/svg" xmlns:xlink="http://www.w3.org/1999/xlink" width="20" height="20" viewBox="0 0 20 20">
  <defs>
    <clipPath id="clip-path">
      <rect id="Rectangle_1923" data-name="Rectangle 1923" width="20" height="20" fill="#fff" stroke="#707070" stroke-width="1"/>
    </clipPath>
    <linearGradient id="linear-gradient" x1="0.084" y1="0.916" x2="0.916" y2="0.084" gradientUnits="objectBoundingBox">
      <stop offset="0" stop-color="#ffd600"/>
      <stop offset="0.5" stop-color="#ff0100"/>
      <stop offset="1" stop-color="#d800b9"/>
    </linearGradient>
    <linearGradient id="linear-gradient-2" x1="0.146" y1="0.854" x2="0.854" y2="0.146" gradientUnits="objectBoundingBox">
      <stop offset="0" stop-color="#ff6400"/>
      <stop offset="0.5" stop-color="#ff0100"/>
      <stop offset="1" stop-color="#fd0056"/>
    </linearGradient>
    <linearGradient id="linear-gradient-3" x1="0.146" y1="0.854" x2="0.854" y2="0.146" gradientUnits="objectBoundingBox">
      <stop offset="0" stop-color="#f30072"/>
      <stop offset="1" stop-color="#e50097"/>
    </linearGradient>
  </defs>
  <g id="instagram" clip-path="url(#clip-path)">
    <g id="instagram-2" data-name="instagram" transform="translate(0 0)">
      <path id="Path_39032" data-name="Path 39032" d="M19.94,5.877a7.342,7.342,0,0,0-.465-2.427,4.9,4.9,0,0,0-1.153-1.771A4.9,4.9,0,0,0,16.55.525,7.34,7.34,0,0,0,14.123.06C13.056.012,12.716,0,10,0S6.944.012,5.877.06A7.342,7.342,0,0,0,3.45.525,4.9,4.9,0,0,0,1.678,1.678,4.9,4.9,0,0,0,.525,3.45,7.341,7.341,0,0,0,.06,5.877C.012,6.943,0,7.284,0,10s.012,3.057.06,4.123A7.34,7.34,0,0,0,.525,16.55a4.9,4.9,0,0,0,1.153,1.771A4.9,4.9,0,0,0,3.45,19.475a7.338,7.338,0,0,0,2.427.465C6.944,19.988,7.284,20,10,20s3.056-.011,4.123-.06a7.338,7.338,0,0,0,2.427-.465,5.112,5.112,0,0,0,2.924-2.924,7.339,7.339,0,0,0,.465-2.427c.049-1.067.06-1.407.06-4.123s-.012-3.056-.06-4.123Zm-1.8,8.164A5.533,5.533,0,0,1,17.8,15.9a3.312,3.312,0,0,1-1.9,1.9,5.533,5.533,0,0,1-1.857.344c-1.054.048-1.371.058-4.041.058s-2.987-.01-4.041-.058A5.535,5.535,0,0,1,4.1,17.8a3.1,3.1,0,0,1-1.15-.748A3.1,3.1,0,0,1,2.2,15.9a5.533,5.533,0,0,1-.344-1.857C1.812,12.987,1.8,12.67,1.8,10s.01-2.986.058-4.041A5.537,5.537,0,0,1,2.2,4.1a3.1,3.1,0,0,1,.748-1.15A3.1,3.1,0,0,1,4.1,2.2,5.532,5.532,0,0,1,5.959,1.86C7.014,1.812,7.33,1.8,10,1.8h0c2.67,0,2.986.01,4.041.058A5.534,5.534,0,0,1,15.9,2.2a3.1,3.1,0,0,1,1.15.748A3.1,3.1,0,0,1,17.8,4.1a5.528,5.528,0,0,1,.344,1.857C18.188,7.014,18.2,7.33,18.2,10s-.01,2.986-.058,4.041Zm0,0" transform="translate(0 0)" fill="url(#linear-gradient)"/>
      <path id="Path_39033" data-name="Path 39033" d="M10,4.865A5.135,5.135,0,1,0,15.135,10,5.135,5.135,0,0,0,10,4.865Zm0,8.468A3.333,3.333,0,1,1,13.333,10,3.333,3.333,0,0,1,10,13.333Zm0,0" transform="translate(0 0)" fill="url(#linear-gradient-2)"/>
      <path id="Path_39034" data-name="Path 39034" d="M16.538,4.662a1.2,1.2,0,1,1-1.2-1.2,1.2,1.2,0,0,1,1.2,1.2Zm0,0" transform="translate(0 0)" fill="url(#linear-gradient-3)"/>
    </g>
  </g>
</svg>
