<svg xmlns="http://www.w3.org/2000/svg" width="24" height="24" viewBox="0 0 24 24">
  <g id="location_icon" transform="translate(-4.553)">
    <rect id="Rectangle_2045" data-name="Rectangle 2045" width="24" height="24" transform="translate(4.553)" fill="none"/>
    <g id="Group_49474" data-name="Group 49474" transform="translate(4.808 0.5)">
      <path id="Path_165" data-name="Path 165" d="M11.939,11.215a3.77,3.77,0,1,0-3.77-3.77A3.774,3.774,0,0,0,11.939,11.215Zm0-6.192A2.422,2.422,0,1,1,9.517,7.445,2.425,2.425,0,0,1,11.939,5.023Z" transform="translate(-0.194 -0.198)" fill="#5b7d1f"/>
      <path id="Path_166" data-name="Path 166" d="M7.64,14.022c1.021,1.383.611.845,3.553,5.045a.674.674,0,0,0,1.1,0c2.955-4.22,2.548-3.685,3.553-5.045A17.145,17.145,0,0,0,18.5,9.549a6.961,6.961,0,0,0-1.016-6.734h0a7.251,7.251,0,0,0-11.472,0A6.961,6.961,0,0,0,4.993,9.549,17.143,17.143,0,0,0,7.64,14.022ZM7.074,3.64a5.9,5.9,0,0,1,9.341,0h0a5.652,5.652,0,0,1,.808,5.469,16.145,16.145,0,0,1-2.457,4.111c-.746,1.009-.522.7-3.021,4.283-2.5-3.578-2.276-3.274-3.021-4.283A16.146,16.146,0,0,1,6.267,9.11,5.652,5.652,0,0,1,7.074,3.64Z" fill="#5b7d1f"/>
      <path id="Path_167" data-name="Path 167" d="M8.22,17.888a.674.674,0,0,0-.93-.21l-1.916,1.21a.674.674,0,0,0,0,1.139l6.038,3.813a.674.674,0,0,0,.72,0l6.038-3.813a.674.674,0,0,0,0-1.139l-1.916-1.21a.674.674,0,1,0-.72,1.139l1.014.64-4.776,3.016L7,19.458l1.014-.64a.674.674,0,0,0,.21-.929Z" transform="translate(-0.027 -0.945)" fill="#5b7d1f"/>
    </g>
  </g>
</svg>
