<svg xmlns="http://www.w3.org/2000/svg" width="25.394" height="15.73" viewBox="0 0 25.394 15.73"><defs><style>.a{fill:#fff;}</style></defs><g transform="translate(21 -49)"><g transform="translate(-21 49)"><path class="a" d="M24.6,98.209H.794a1.006,1.006,0,0,1,0-1.966H24.6a1.006,1.006,0,0,1,0,1.966Z" transform="translate(0 -96.243)"/><path class="a" d="M.794,180.455H24.6a1.006,1.006,0,0,1,0,1.966H.794a1.006,1.006,0,0,1,0-1.966Z" transform="translate(0 -173.573)"/><path class="a" d="M121.286,264.667h19.663a.983.983,0,1,1,0,1.966H121.286a.983.983,0,0,1,0-1.966Z" transform="translate(-120.303 -250.903)"/></g></g></svg>