<svg xmlns="http://www.w3.org/2000/svg" xmlns:xlink="http://www.w3.org/1999/xlink" width="20" height="20" viewBox="0 0 20 20">
  <defs>
    <clipPath id="clip-path">
      <rect id="Rectangle_1944" data-name="Rectangle 1944" width="20" height="20" transform="translate(16 403)" stroke="#fff" stroke-width="0.3"/>
    </clipPath>
  </defs>
  <g id="localisation_icon" transform="translate(-16 -403)" clip-path="url(#clip-path)">
    <g id="clipboard" transform="translate(16 403)">
      <g id="Group_47397" data-name="Group 47397">
        <g id="Group_47396" data-name="Group 47396">
          <path id="Path_39196" data-name="Path 39196" d="M15.857,2.62H14.047V1.811c0-.262-.286-.381-.548-.381H12.1A2.13,2.13,0,0,0,9.976,0,2.166,2.166,0,0,0,7.857,1.43H6.477c-.262,0-.524.119-.524.381V2.62H4.143a2.024,2.024,0,0,0-2,1.928V18.191a1.915,1.915,0,0,0,2,1.809H15.857a1.915,1.915,0,0,0,2-1.809V4.549A2.024,2.024,0,0,0,15.857,2.62ZM6.905,2.382H8.214a.524.524,0,0,0,.452-.429A1.381,1.381,0,0,1,9.976.882a1.357,1.357,0,0,1,1.286,1.071.524.524,0,0,0,.476.429H13.1v1.9H6.905Zm10,15.808a.966.966,0,0,1-1.048.857H4.143A.966.966,0,0,1,3.1,18.191V4.549a1.071,1.071,0,0,1,1.048-.976H5.953V4.787a.5.5,0,0,0,.524.452H13.5a.524.524,0,0,0,.548-.452V3.573h1.809a1.071,1.071,0,0,1,1.048.976V18.191Z"/>
          <path id="Path_39197" data-name="Path 39197" d="M8.167,10.644A.476.476,0,0,0,7.5,10.62L5.976,12.072l-.643-.667a.476.476,0,0,0-.667-.024.5.5,0,0,0,0,.69l.976,1a.428.428,0,0,0,.333.143.476.476,0,0,0,.333-.143L8.167,11.31a.452.452,0,0,0,.027-.639Z"/>
          <path id="Path_39198" data-name="Path 39198" d="M15,11.667H9.524a.476.476,0,0,0,0,.952H15a.476.476,0,1,0,0-.952Z"/>
          <path id="Path_39199" data-name="Path 39199" d="M8.167,6.834A.476.476,0,0,0,7.5,6.811L5.976,8.263,5.334,7.6a.476.476,0,0,0-.667-.024.5.5,0,0,0,0,.69l.976,1a.428.428,0,0,0,.333.143.476.476,0,0,0,.333-.143L8.167,7.5a.452.452,0,0,0,.027-.639Z"/>
          <path id="Path_39200" data-name="Path 39200" d="M15,7.858H9.524a.476.476,0,0,0,0,.952H15a.476.476,0,1,0,0-.952Z"/>
          <path id="Path_39201" data-name="Path 39201" d="M8.167,14.453a.476.476,0,0,0-.667-.024L5.976,15.881l-.643-.667a.476.476,0,0,0-.667-.024.5.5,0,0,0,0,.69l.976,1a.428.428,0,0,0,.333.143.476.476,0,0,0,.333-.143l1.857-1.762a.452.452,0,0,0,.027-.639Z"/>
          <path id="Path_39202" data-name="Path 39202" d="M15,15.477H9.524a.476.476,0,1,0,0,.952H15a.476.476,0,1,0,0-.952Z"/>
        </g>
      </g>
    </g>
  </g>
</svg>
