<svg xmlns="http://www.w3.org/2000/svg" width="18.224" height="24.554" viewBox="0 0 18.224 24.554"><path d="M16.306,9.448V7.194a7.194,7.194,0,1,0-14.387,0V9.448A2.4,2.4,0,0,0,0,11.8V14.52a.48.48,0,1,0,.959,0V11.8A1.44,1.44,0,0,1,2.4,10.359H15.826A1.44,1.44,0,0,1,17.265,11.8V22.156a1.441,1.441,0,0,1-.959,1.356V20.622a.48.48,0,0,0-.959,0V23.6H2.4A1.44,1.44,0,0,1,.959,22.156V18.368a.48.48,0,0,0-.959,0v3.789a2.4,2.4,0,0,0,2.4,2.4H15.826a2.4,2.4,0,0,0,2.4-2.4V11.8A2.4,2.4,0,0,0,16.306,9.448ZM5.467,9.4V7.194a3.645,3.645,0,1,1,7.29,0V9.4Zm8.249,0V7.194a4.6,4.6,0,1,0-9.208,0V9.4H2.877V7.194a6.234,6.234,0,1,1,12.469,0V9.4Zm0,0"/><path d="M.48,333.447a.479.479,0,1,0-.48-.48.48.48,0,0,0,.48.48Zm0,0" transform="translate(0 -316.543)"/><path d="M138.713,284.646a1.44,1.44,0,0,0,1.439-1.439v-2.547a2.59,2.59,0,1,0-2.877-.008v2.555A1.44,1.44,0,0,0,138.713,284.646Zm-1.624-6.143a1.631,1.631,0,1,1,2.367,1.455.479.479,0,0,0-.263.428v2.821a.48.48,0,1,1-.959,0V280.38a.48.48,0,0,0-.26-.426A1.626,1.626,0,0,1,137.088,278.5Zm0,0" transform="translate(-129.601 -262.682)"/><path d="M320.48,379.959a.48.48,0,1,0-.339-.141A.482.482,0,0,0,320.48,379.959Zm0,0" transform="translate(-304.654 -360.824)"/></svg>