<svg xmlns="http://www.w3.org/2000/svg" width="19.787" height="15.24" viewBox="0 0 19.787 15.24"><defs><style>.a{fill:#222;}</style></defs><g transform="translate(0 -58.83)"><g transform="translate(0 65.651)"><g transform="translate(0 0)"><path class="a" d="M18.988,235.318H.8a.8.8,0,1,0,0,1.6H18.988a.8.8,0,1,0,0-1.6Z" transform="translate(0 -235.318)"/></g></g><g transform="translate(0 58.83)"><path class="a" d="M1.93,66.45l6.256-6.256a.8.8,0,0,0-1.13-1.13L.234,65.885a.8.8,0,0,0,0,1.13l6.821,6.821a.8.8,0,1,0,1.13-1.13Z" transform="translate(0 -58.83)"/></g></g></svg>