<svg xmlns="http://www.w3.org/2000/svg" width="22" height="22" viewBox="0 0 22 22">
  <g id="message_icon" transform="translate(-221)">
    <rect id="Rectangle_1938" data-name="Rectangle 1938" width="22" height="22" transform="translate(221)" fill="none"/>
    <g id="message" transform="translate(222 2.5)">
      <path id="Path_38917" data-name="Path 38917" d="M16.411.5H4.234A4.239,4.239,0,0,0,0,4.734v6.539a4.166,4.166,0,0,0,3,4L5.04,17.323a.6.6,0,0,0,.855,0l1.876-1.876h8.64a4.239,4.239,0,0,0,4.234-4.234V4.734A4.239,4.239,0,0,0,16.411.5Zm3.024,10.713a3.028,3.028,0,0,1-3.024,3.024H7.521a.6.6,0,0,0-.428.177L5.468,16.04,3.737,14.308a.6.6,0,0,0-.282-.159A2.958,2.958,0,0,1,1.21,11.273V4.734A3.028,3.028,0,0,1,4.234,1.71H16.411a3.028,3.028,0,0,1,3.024,3.024Zm0,0" fill="#848ca0"/>
      <path id="Path_38918" data-name="Path 38918" d="M154.044,144.328h-7.681a.6.6,0,1,0,0,1.21h7.681a.6.6,0,0,0,0-1.21Zm0,0" transform="translate(-139.881 -138.029)" fill="#848ca0"/>
      <path id="Path_38919" data-name="Path 38919" d="M154.044,197.352h-7.681a.6.6,0,1,0,0,1.21h7.681a.6.6,0,1,0,0-1.21Zm0,0" transform="translate(-139.881 -188.915)" fill="#848ca0"/>
    </g>
  </g>
</svg>
