<svg width="14" height="14" viewBox="0 0 14 14" fill="none" xmlns="http://www.w3.org/2000/svg">
<path d="M6.99992 8.16671C7.64425 8.16671 8.16659 7.64437 8.16659 7.00004C8.16659 6.35571 7.64425 5.83337 6.99992 5.83337C6.35559 5.83337 5.83325 6.35571 5.83325 7.00004C5.83325 7.64437 6.35559 8.16671 6.99992 8.16671Z" fill="black"/>
<path d="M11.0834 8.16671C11.7277 8.16671 12.2501 7.64437 12.2501 7.00004C12.2501 6.35571 11.7277 5.83337 11.0834 5.83337C10.4391 5.83337 9.91675 6.35571 9.91675 7.00004C9.91675 7.64437 10.4391 8.16671 11.0834 8.16671Z" fill="black"/>
<path d="M2.91667 8.16671C3.561 8.16671 4.08333 7.64437 4.08333 7.00004C4.08333 6.35571 3.561 5.83337 2.91667 5.83337C2.27233 5.83337 1.75 6.35571 1.75 7.00004C1.75 7.64437 2.27233 8.16671 2.91667 8.16671Z" fill="black"/>
</svg>
