<svg xmlns="http://www.w3.org/2000/svg" width="22.321" height="22.321" viewBox="0 0 22.321 22.321">
  <g id="my_reward_icon" transform="translate(0.159 0.16)">
    <path id="Path_77621" data-name="Path 77621" d="M14.528,22a2.5,2.5,0,0,1-1.031-.222l-1.846-.838a1.571,1.571,0,0,0-1.3,0l-1.845.838a2.49,2.49,0,0,1-3.361-1.393l-.711-1.9a1.576,1.576,0,0,0-.92-.92l-1.9-.711A2.489,2.489,0,0,1,.225,13.5l.839-1.845a1.582,1.582,0,0,0,0-1.3L.224,8.506A2.489,2.489,0,0,1,1.616,5.145l1.9-.711a1.571,1.571,0,0,0,.92-.92l.711-1.9A2.49,2.49,0,0,1,8.506.224l1.846.838a1.571,1.571,0,0,0,1.3,0L13.5.224a2.49,2.49,0,0,1,3.361,1.393l.711,1.9a1.576,1.576,0,0,0,.92.92l1.9.711a2.489,2.489,0,0,1,1.392,3.361l-.839,1.845a1.582,1.582,0,0,0,0,1.3l.838,1.844a2.489,2.489,0,0,1-1.392,3.361l-1.9.711a1.571,1.571,0,0,0-.92.92l-.711,1.9a2.5,2.5,0,0,1-1.378,1.426,2.467,2.467,0,0,1-.951.189ZM11,19.883a2.5,2.5,0,0,1,1.031.223l1.845.838A1.575,1.575,0,0,0,16,20.064l.711-1.9a2.488,2.488,0,0,1,1.456-1.456l1.9-.711a1.573,1.573,0,0,0,.879-2.123l-.839-1.845a2.492,2.492,0,0,1,0-2.06l.839-1.845A1.573,1.573,0,0,0,20.066,6l-1.9-.711a2.486,2.486,0,0,1-1.456-1.456L16,1.939a1.575,1.575,0,0,0-2.124-.88L12.032,1.9a2.493,2.493,0,0,1-2.06,0L8.127,1.058A1.575,1.575,0,0,0,6,1.938l-.711,1.9A2.487,2.487,0,0,1,3.836,5.291L1.938,6a1.575,1.575,0,0,0-.88,2.124L1.9,9.971a2.492,2.492,0,0,1,0,2.06l-.839,1.845A1.573,1.573,0,0,0,1.937,16l1.9.711a2.486,2.486,0,0,1,1.456,1.456L6,20.064a1.575,1.575,0,0,0,2.124.88l1.845-.838A2.51,2.51,0,0,1,11,19.883Z" transform="translate(0 0)" fill="#848ca0" stroke="#848ca0" stroke-width="0.3"/>
    <path id="Path_77622" data-name="Path 77622" d="M16.94,15.343H6.573A.469.469,0,0,1,6.1,14.99L5.007,9.329a.4.4,0,0,1,.187-.412.534.534,0,0,1,.5-.04l3.132,1.359,2.506-4.013a.543.543,0,0,1,.846,0l2.506,4.013,3.132-1.359a.534.534,0,0,1,.5.04.4.4,0,0,1,.187.412L17.416,14.99A.47.47,0,0,1,16.94,15.343Zm-9.958-.849h9.551l.865-4.488-2.7,1.171A.515.515,0,0,1,14.062,11L11.757,7.309,9.452,11a.515.515,0,0,1-.636.176l-2.7-1.171Z" transform="translate(-0.755 -0.157)" fill="#848ca0" stroke="#848ca0" stroke-width="0.3"/>
  </g>
</svg>
