<svg xmlns="http://www.w3.org/2000/svg" width="6.707" height="26.826" viewBox="0 0 6.707 26.826"><defs><style>.a{fill:#fff;}</style></defs><g transform="translate(-192)"><g transform="translate(192)"><path class="a" d="M195.353,192a3.353,3.353,0,1,0,3.353,3.353A3.357,3.357,0,0,0,195.353,192Zm0,5.589a2.236,2.236,0,1,1,2.236-2.236A2.238,2.238,0,0,1,195.353,197.589Z" transform="translate(-192 -181.94)"/><path class="a" d="M195.353,384a3.353,3.353,0,1,0,3.353,3.353A3.357,3.357,0,0,0,195.353,384Zm0,5.589a2.236,2.236,0,1,1,2.236-2.236A2.238,2.238,0,0,1,195.353,389.589Z" transform="translate(-192 -363.88)"/><path class="a" d="M195.353,6.707A3.353,3.353,0,1,0,192,3.353,3.357,3.357,0,0,0,195.353,6.707Zm0-5.589a2.236,2.236,0,1,1-2.236,2.236A2.238,2.238,0,0,1,195.353,1.118Z" transform="translate(-192)"/></g></g></svg>