<svg xmlns="http://www.w3.org/2000/svg" width="24" height="24" viewBox="0 0 24 24">
  <g id="new_members_icon" transform="translate(-7.441 -7.612)">
    <rect id="Rectangle_2049" data-name="Rectangle 2049" width="24" height="24" transform="translate(7.441 7.612)" fill="none"/>
    <path id="add-user_1_" data-name="add-user (1)" d="M19.1,15.368a.746.746,0,0,1-.746.746H16.114v2.238a.746.746,0,0,1-1.492,0V16.114H12.384a.746.746,0,0,1,0-1.492h2.238V12.384a.746.746,0,1,1,1.492,0v2.238h2.238A.746.746,0,0,1,19.1,15.368ZM13.13,18.352a.746.746,0,0,1-.746.746H2.238A2.24,2.24,0,0,1,0,16.86V15.48a4.467,4.467,0,0,1,1.515-3.357A10.373,10.373,0,0,1,6.186,9.9a5.517,5.517,0,1,1,3.363,1.146c-4.1,0-6.3,1.541-7.049,2.2A2.975,2.975,0,0,0,1.492,15.48v1.38a.747.747,0,0,0,.746.746H12.384a.746.746,0,0,1,.746.746Zm-3.581-8.8A4.028,4.028,0,1,0,5.521,5.521,4.033,4.033,0,0,0,9.549,9.549Zm0,0" transform="translate(9.441 9.612)" fill="#50b1b9"/>
  </g>
</svg>
