<svg xmlns="http://www.w3.org/2000/svg" xmlns:xlink="http://www.w3.org/1999/xlink" width="50" height="50" viewBox="0 0 50 50">
  <defs>
    <clipPath id="clip-path">
      <rect id="Rectangle_27" data-name="Rectangle 27" width="50" height="50" transform="translate(528 333)" fill="#370000"/>
    </clipPath>
  </defs>
  <g id="notification" transform="translate(-528 -333)" clip-path="url(#clip-path)">
    <g id="Notification-2" data-name="Notification" transform="translate(534.333 329.697)">
      <path id="Path_12" data-name="Path 12" d="M14.783,45.168a5.091,5.091,0,0,0,3.78,1.8h0a5.109,5.109,0,0,0,3.794-1.806,1.514,1.514,0,0,1,2.25,2.027A8.105,8.105,0,0,1,18.565,50h0a8.081,8.081,0,0,1-6.029-2.81,1.513,1.513,0,0,1,2.25-2.022ZM18.664,6.606c8.972,0,15,6.988,15,13.513a10.325,10.325,0,0,0,1.76,6.289,10.959,10.959,0,0,1,1.911,6.378c-.7,8.168-9.232,8.834-18.67,8.834S.7,40.954,0,32.915a11.054,11.054,0,0,1,1.905-6.507l.316-.532a10.124,10.124,0,0,0,1.444-5.757C3.665,13.593,9.692,6.606,18.664,6.606Zm0,3.028c-7.054,0-11.971,5.526-11.971,10.485A13.16,13.16,0,0,1,4.5,27.966a7.98,7.98,0,0,0-1.477,4.82c.337,3.807,2.85,5.807,15.642,5.807,12.722,0,15.313-2.089,15.648-5.938a7.9,7.9,0,0,0-1.484-4.689,13.16,13.16,0,0,1-2.194-7.847C30.635,15.159,25.718,9.633,18.664,9.633Z" fill="#810081" fill-rule="evenodd"/>
    </g>
  </g>
</svg>
