<svg xmlns="http://www.w3.org/2000/svg" width="22" height="22" viewBox="0 0 22 22">
  <g id="orders_icon" transform="translate(-52.02 2)">
    <rect id="Rectangle_2071" data-name="Rectangle 2071" width="22" height="22" transform="translate(52.02 -2)" fill="none"/>
    <path id="Union_1" data-name="Union 1" d="M-19113.4-366.034a3.593,3.593,0,0,1-2.625-1.147,3.593,3.593,0,0,1-.939-2.7l.979-12.364a1.546,1.546,0,0,1,1.535-1.42h1.939v-.086a4.251,4.251,0,0,1,4.246-4.246,4.25,4.25,0,0,1,4.244,4.246v.086h1.939a1.539,1.539,0,0,1,1.529,1.42l.984,12.359a3.579,3.579,0,0,1-.945,2.706,3.577,3.577,0,0,1-2.619,1.147Zm-1.3-16.116-.982,12.369a2.273,2.273,0,0,0,.6,1.727,2.262,2.262,0,0,0,1.68.734h10.268a2.262,2.262,0,0,0,1.68-.734,2.283,2.283,0,0,0,.6-1.732l-.982-12.359a.252.252,0,0,0-.25-.235h-1.939v1.583a.642.642,0,0,1-.643.643.644.644,0,0,1-.643-.643v-1.583h-5.92v1.583a.642.642,0,0,1-.643.643.642.642,0,0,1-.643-.643v-1.583h-1.939A.252.252,0,0,0-19114.705-382.15Zm3.475-1.6v.086h5.92v-.086a2.964,2.964,0,0,0-2.959-2.96A2.964,2.964,0,0,0-19111.23-383.753Zm1.621,10.9-1.559-1.559a.641.641,0,0,1,0-.912.642.642,0,0,1,.906,0l1.1,1.1,2.873-2.869a.641.641,0,0,1,.912,0,.642.642,0,0,1,0,.907l-3.33,3.33a.634.634,0,0,1-.455.187A.638.638,0,0,1-19109.609-372.852Z" transform="translate(19170.998 385.999)" fill="#848ca0"/>
  </g>
</svg>
