<svg xmlns="http://www.w3.org/2000/svg" width="24" height="24" viewBox="0 0 24 24">
  <g id="orders_recived_icon" transform="translate(3 -0.095)">
    <rect id="Rectangle_2048" data-name="Rectangle 2048" width="24" height="24" transform="translate(-3 0.095)" fill="none"/>
    <g id="Group_49475" data-name="Group 49475" transform="translate(0 0.095)">
      <path id="Path_77574" data-name="Path 77574" d="M71.3,19.019,70.266,6.041a1.622,1.622,0,0,0-1.61-1.491H66.621V4.458a4.458,4.458,0,0,0-8.916,0V4.55H55.671a1.622,1.622,0,0,0-1.61,1.489l-1.03,12.982a3.755,3.755,0,0,0,3.744,4.043H67.551A3.755,3.755,0,0,0,71.3,19.019ZM59.056,4.458a3.107,3.107,0,0,1,6.214,0V4.55H59.056ZM69.315,20.942a2.38,2.38,0,0,1-1.764.771H56.775a2.4,2.4,0,0,1-2.4-2.587l1.03-12.982a.265.265,0,0,1,.263-.244h2.034V7.564a.675.675,0,1,0,1.351,0V5.9h6.214V7.564a.675.675,0,1,0,1.351,0V5.9h2.034a.265.265,0,0,1,.263.245l1.03,12.978A2.38,2.38,0,0,1,69.315,20.942Z" transform="translate(-53.02)" fill="#5968de"/>
      <g id="Group_49082" data-name="Group 49082" transform="translate(5.902 11.257)">
        <g id="Group_49081" data-name="Group 49081">
          <path id="Path_77575" data-name="Path 77575" d="M190.336,250.091a.676.676,0,0,0-.955,0l-3.016,3.016-1.16-1.16a.675.675,0,1,0-.955.955l1.637,1.637a.675.675,0,0,0,.955,0l3.494-3.494A.676.676,0,0,0,190.336,250.091Z" transform="translate(-184.052 -249.893)" fill="#4334d6"/>
        </g>
      </g>
    </g>
  </g>
</svg>
