<svg xmlns="http://www.w3.org/2000/svg" width="20.693" height="20.695" viewBox="0 0 20.693 20.695">
  <g id="points_icon" transform="translate(0.159 0.159)">
    <path id="Path_77621" data-name="Path 77621" d="M13.454,20.376a2.314,2.314,0,0,1-.954-.205l-1.709-.776a1.455,1.455,0,0,0-1.2,0l-1.708.776a2.306,2.306,0,0,1-3.113-1.29l-.659-1.757a1.46,1.46,0,0,0-.852-.852L1.5,15.613A2.3,2.3,0,0,1,.208,12.5l.777-1.708a1.466,1.466,0,0,0,0-1.207L.207,7.878A2.3,2.3,0,0,1,1.5,4.765l1.758-.659a1.455,1.455,0,0,0,.852-.852L4.764,1.5A2.306,2.306,0,0,1,7.877.207L9.586.983a1.455,1.455,0,0,0,1.2,0L12.5.207A2.306,2.306,0,0,1,15.612,1.5l.659,1.757a1.46,1.46,0,0,0,.852.852l1.758.659a2.3,2.3,0,0,1,1.289,3.113l-.777,1.708a1.466,1.466,0,0,0,0,1.207l.776,1.707a2.3,2.3,0,0,1-1.289,3.113l-1.758.659a1.455,1.455,0,0,0-.852.852l-.659,1.757a2.313,2.313,0,0,1-1.276,1.32,2.285,2.285,0,0,1-.88.175Zm-3.266-1.961a2.313,2.313,0,0,1,.954.206l1.708.776a1.458,1.458,0,0,0,1.966-.815l.659-1.757a2.3,2.3,0,0,1,1.348-1.348l1.758-.659a1.457,1.457,0,0,0,.814-1.966l-.777-1.708a2.308,2.308,0,0,1,0-1.908L19.4,7.526a1.457,1.457,0,0,0-.814-1.966L16.825,4.9a2.3,2.3,0,0,1-1.348-1.348L14.818,1.8A1.459,1.459,0,0,0,12.851.981l-1.708.776a2.308,2.308,0,0,1-1.908,0L7.526.98A1.458,1.458,0,0,0,5.56,1.8L4.9,3.553A2.3,2.3,0,0,1,3.553,4.9L1.8,5.559A1.459,1.459,0,0,0,.98,7.526l.777,1.708a2.308,2.308,0,0,1,0,1.908L.98,12.852a1.457,1.457,0,0,0,.814,1.966l1.758.659A2.3,2.3,0,0,1,4.9,16.825l.659,1.757a1.459,1.459,0,0,0,1.967.815l1.708-.776a2.324,2.324,0,0,1,.954-.206Z" fill="#f47458" stroke="#f47c62" stroke-width="0.3"/>
    <path id="Path_77622" data-name="Path 77622" d="M15.5,15.343H6.384a.425.425,0,0,1-.419-.353L5.006,9.329a.426.426,0,0,1,.165-.412.421.421,0,0,1,.442-.04l2.755,1.359,2.2-4.013a.443.443,0,0,1,.744,0l2.2,4.013,2.755-1.359a.424.424,0,0,1,.606.452l-.959,5.661A.425.425,0,0,1,15.5,15.343Zm-8.76-.849h8.4l.761-4.488-2.374,1.171a.422.422,0,0,1-.56-.176L10.943,7.309,8.916,11a.423.423,0,0,1-.56.176L5.982,10.006Z" transform="translate(-0.754 -0.909)" fill="#f47458" stroke="#f47458" stroke-width="0.3"/>
  </g>
</svg>
