<svg xmlns="http://www.w3.org/2000/svg" width="19.349" height="23.823" viewBox="0 0 19.349 23.823"><g transform="translate(0.004 0.002)"><path d="M222.956,154.7a.558.558,0,0,0-.558.558v10.545a.558.558,0,0,0,1.116,0V155.261A.558.558,0,0,0,222.956,154.7Zm0,0" transform="translate(-209.993 -146.073)"/><path d="M104.956,154.7a.558.558,0,0,0-.558.558v10.545a.558.558,0,1,0,1.116,0V155.261A.558.558,0,0,0,104.956,154.7Zm0,0" transform="translate(-98.577 -146.073)"/><path d="M1.581,7.091V20.837A3.078,3.078,0,0,0,2.4,22.959a2.747,2.747,0,0,0,1.993.862H14.949a2.747,2.747,0,0,0,1.993-.862,3.078,3.078,0,0,0,.818-2.123V7.091A2.131,2.131,0,0,0,17.214,2.9H14.357V2.2A2.191,2.191,0,0,0,12.148,0H7.194A2.191,2.191,0,0,0,4.985,2.2v.7H2.128a2.131,2.131,0,0,0-.547,4.191ZM14.949,22.706H4.393a1.767,1.767,0,0,1-1.7-1.869V7.14H16.645v13.7a1.767,1.767,0,0,1-1.7,1.869ZM6.1,2.2A1.075,1.075,0,0,1,7.194,1.114h4.954A1.075,1.075,0,0,1,13.242,2.2v.7H6.1ZM2.128,4.016H17.214a1,1,0,1,1,0,2.008H2.128a1,1,0,0,1,0-2.008Zm0,0" transform="translate(0 0)"/><path d="M163.956,154.7a.558.558,0,0,0-.558.558v10.545a.558.558,0,1,0,1.116,0V155.261A.558.558,0,0,0,163.956,154.7Zm0,0" transform="translate(-154.285 -146.073)"/></g></svg>