<svg width="16" height="16" viewBox="0 0 16 16" fill="none" xmlns="http://www.w3.org/2000/svg">
<path fill-rule="evenodd" clip-rule="evenodd" d="M7.30964 0C11.2432 0 14.4428 3.23322 14.4428 7.20812C14.4428 9.08346 13.7306 10.7939 12.5651 12.0776L14.8584 14.3901C15.073 14.607 15.0738 14.9578 14.8591 15.1747C14.7522 15.2843 14.6108 15.3383 14.4702 15.3383C14.3303 15.3383 14.1896 15.2843 14.0819 15.1762L11.761 12.8374C10.54 13.8254 8.99197 14.417 7.30964 14.417C3.37609 14.417 0.175781 11.183 0.175781 7.20812C0.175781 3.23322 3.37609 0 7.30964 0ZM7.30964 1.11031C3.98188 1.11031 1.27454 3.84537 1.27454 7.20812C1.27454 10.5709 3.98188 13.3067 7.30964 13.3067C10.6367 13.3067 13.344 10.5709 13.344 7.20812C13.344 3.84537 10.6367 1.11031 7.30964 1.11031Z" fill="white"/>
</svg>
