<svg width="14" height="11" viewBox="0 0 14 11" fill="none" xmlns="http://www.w3.org/2000/svg">
<path fill-rule="evenodd" clip-rule="evenodd" d="M6.99845 0C4.37638 0.00190189 2.02183 1.83976 0.699383 4.91703C0.647397 5.03685 0.647397 5.17252 0.699383 5.29234C2.0212 8.37023 4.37638 10.2081 6.99845 10.21H7.00226C9.62434 10.2081 11.9789 8.37023 13.3013 5.29234C13.3527 5.17252 13.3527 5.03685 13.3013 4.91703C11.9789 1.83976 9.6237 0.00190189 7.00226 0H6.99845ZM7.00036 0.950947C9.17866 0.951581 11.1655 2.50036 12.3447 5.10468C11.1655 7.70964 9.17929 9.25842 7.00036 9.25905C4.82142 9.25842 2.83521 7.70964 1.65604 5.10468C2.83521 2.50036 4.82142 0.951581 7.00036 0.950947ZM7.00055 2.62512C5.63308 2.62512 4.52048 3.73773 4.52048 5.10519C4.52048 6.47202 5.63308 7.58399 7.00055 7.58399C8.36801 7.58399 9.47998 6.47202 9.47998 5.10519C9.47998 3.73773 8.36801 2.62512 7.00055 2.62512ZM7.00055 3.57607C7.84372 3.57607 8.52904 4.26202 8.52904 5.10519C8.52904 5.94773 7.84372 6.63304 7.00055 6.63304C6.15737 6.63304 5.47142 5.94773 5.47142 5.10519C5.47142 4.26202 6.15737 3.57607 7.00055 3.57607Z" fill="black"/>
</svg>
