<svg xmlns="http://www.w3.org/2000/svg" width="14" height="14" viewBox="0 0 14 14">
  <g id="star_icon" transform="translate(-68 -11)">
    <rect id="Rectangle_2064" data-name="Rectangle 2064" width="14" height="14" transform="translate(68 11)" fill="none"/>
    <path id="star_2_" data-name="star (2)" d="M12.169,4.91a.647.647,0,0,0-.558-.446l-3.521-.32L6.7.885A.648.648,0,0,0,5.5.885L4.112,4.144.59,4.464A.649.649,0,0,0,.222,5.6L2.883,7.933,2.1,11.39a.647.647,0,0,0,.964.7L6.1,10.276l3.036,1.815a.648.648,0,0,0,.965-.7L9.317,7.933,11.979,5.6a.649.649,0,0,0,.19-.689Zm0,0" transform="translate(68.799 12.103)" fill="#ffc107"/>
  </g>
</svg>
