<svg width="15" height="14" viewBox="0 0 15 14" fill="none" xmlns="http://www.w3.org/2000/svg">
<path d="M12.3214 0C10.8484 0 9.64287 1.26478 9.64287 2.8101C9.64287 2.99259 9.66103 3.17053 9.69306 3.34358L4.89466 5.4281C4.41169 4.68245 3.5976 4.1899 2.67857 4.1899C1.20558 4.1899 0 5.45468 0 7C0 8.54532 1.20558 9.8101 2.67857 9.8101C3.5976 9.8101 4.41169 9.31756 4.89466 8.5719L9.69306 10.6564C9.66097 10.8295 9.64287 11.0074 9.64287 11.1899C9.64287 12.7352 10.8484 14 12.3214 14C13.7944 14 15 12.7352 15 11.1899C15 9.64458 13.7944 8.37981 12.3214 8.37981C11.4022 8.37981 10.5872 8.87201 10.1043 9.618L5.30694 7.53348C5.33903 7.36044 5.35713 7.1825 5.35713 7C5.35713 6.81751 5.33897 6.63957 5.30694 6.46652L10.1043 4.382C10.5872 5.12799 11.4022 5.6202 12.3214 5.6202C13.7944 5.6202 15 4.35542 15 2.8101C15 1.26478 13.7944 0 12.3214 0ZM12.3214 1.12404C13.2154 1.12404 13.9286 1.87226 13.9286 2.8101C13.9286 3.74794 13.2154 4.49616 12.3214 4.49616C11.4275 4.49616 10.7143 3.74794 10.7143 2.8101C10.7143 1.87226 11.4275 1.12404 12.3214 1.12404ZM2.67859 5.31394C3.57254 5.31394 4.28573 6.06216 4.28573 7C4.28573 7.93784 3.57254 8.68606 2.67859 8.68606C1.78465 8.68606 1.07145 7.93784 1.07145 7C1.07145 6.06216 1.78465 5.31394 2.67859 5.31394ZM12.3214 9.50384C13.2154 9.50384 13.9286 10.2521 13.9286 11.1899C13.9286 12.1277 13.2154 12.876 12.3214 12.876C11.4275 12.876 10.7143 12.1277 10.7143 11.1899C10.7143 10.2521 11.4275 9.50384 12.3214 9.50384Z" fill="black"/>
</svg>
