<svg xmlns="http://www.w3.org/2000/svg" width="30" height="30" viewBox="0 0 30 30">
    <g id="share_icon" transform="translate(-323 -230)">
        <rect id="p04tx3m6" width="30" height="30" rx="5" transform="translate(323 230)"
            fill="rgba(244,116,88,0.14)" />
        <path id="share"
            d="M20.615,10.274A3.108,3.108,0,0,0,18.22,11.4L14.5,9.29a3.106,3.106,0,0,0,0-2.079L18.22,5.1a3.109,3.109,0,1,0-.539-.947L13.964,6.264a3.113,3.113,0,1,0,0,3.973l3.718,2.111a3.112,3.112,0,1,0,2.934-2.073Zm0-9.184a2.024,2.024,0,1,1-2.024,2.024A2.026,2.026,0,0,1,20.615,1.089Zm-9.046,9.184A2.024,2.024,0,1,1,13.593,8.25,2.026,2.026,0,0,1,11.569,10.274Zm9.046,5.137a2.024,2.024,0,1,1,2.023-2.024A2.026,2.026,0,0,1,20.615,15.411Z"
            transform="translate(321.544 237)" fill="#f47458" />
    </g>
</svg>
