<svg xmlns="http://www.w3.org/2000/svg" xmlns:xlink="http://www.w3.org/1999/xlink" width="20" height="20" viewBox="0 0 20 20">
  <defs>
    <clipPath id="clip-path">
      <rect id="Rectangle_1923" data-name="Rectangle 1923" width="20" height="20" fill="#fff" stroke="#707070" stroke-width="1"/>
    </clipPath>
  </defs>
  <g id="twitter_icon" clip-path="url(#clip-path)">
    <path id="twitter" d="M20,3.8a8.549,8.549,0,0,1-2.363.648,4.077,4.077,0,0,0,1.8-2.266,8.194,8.194,0,0,1-2.6.992,4.1,4.1,0,0,0-7.092,2.8,4.222,4.222,0,0,0,.1.935A11.606,11.606,0,0,1,1.392,2.623,4.1,4.1,0,0,0,2.652,8.1,4.049,4.049,0,0,1,.8,7.6v.045a4.119,4.119,0,0,0,3.285,4.029,4.092,4.092,0,0,1-1.075.135,3.625,3.625,0,0,1-.776-.07,4.139,4.139,0,0,0,3.831,2.856A8.239,8.239,0,0,1,.981,16.341,7.68,7.68,0,0,1,0,16.285a11.543,11.543,0,0,0,6.29,1.84A11.59,11.59,0,0,0,17.96,6.458c0-.181-.006-.356-.015-.53A8.18,8.18,0,0,0,20,3.8Z" transform="translate(-0.021)" fill="#03a9f4"/>
  </g>
</svg>
