<svg width="16" height="16" viewBox="0 0 16 16" fill="none" xmlns="http://www.w3.org/2000/svg">
<path fill-rule="evenodd" clip-rule="evenodd" d="M5.64 7.8208C2.37493 8.8288 0 11.8725 0 15.4667C0 15.7611 0.238933 16 0.533333 16C0.827733 16 1.06667 15.7611 1.06667 15.4667C1.06667 11.64 4.17333 8.53333 8 8.53333C11.8267 8.53333 14.9333 11.64 14.9333 15.4667C14.9333 15.7611 15.1723 16 15.4667 16C15.7611 16 16 15.7611 16 15.4667C16 11.8725 13.6251 8.8288 10.36 7.8208C11.5088 7.05653 12.2667 5.74933 12.2667 4.26667C12.2667 1.912 10.3547 0 8 0C5.64533 0 3.73333 1.912 3.73333 4.26667C3.73333 5.74933 4.4912 7.05653 5.64 7.8208ZM8 1.06667C9.76587 1.06667 11.2 2.5008 11.2 4.26667C11.2 6.03253 9.76587 7.46667 8 7.46667C6.23413 7.46667 4.8 6.03253 4.8 4.26667C4.8 2.5008 6.23413 1.06667 8 1.06667Z" fill="black"/>
</svg>
