<svg width="20" height="16" viewBox="0 0 20 16" fill="none" xmlns="http://www.w3.org/2000/svg">
<path d="M10.7423 0.656693C10.5905 0.591008 10.424 0.566784 10.2597 0.586494C10.0955 0.606204 9.9394 0.669141 9.80742 0.768882L5.33855 4.30285H1.92612C1.67817 4.30285 1.44037 4.40135 1.26504 4.57668C1.08971 4.75201 0.991211 4.9898 0.991211 5.23776V10.8472C0.991211 11.0952 1.08971 11.333 1.26504 11.5083C1.44037 11.6836 1.67817 11.7821 1.92612 11.7821H5.33855L9.76068 15.3161C9.92517 15.4481 10.1294 15.5206 10.3403 15.5218C10.48 15.5241 10.618 15.492 10.7423 15.4283C10.9014 15.3525 11.0359 15.2333 11.1302 15.0844C11.2244 14.9356 11.2747 14.7631 11.2752 14.5869V1.49811C11.2747 1.3219 11.2244 1.14941 11.1302 1.00053C11.0359 0.85166 10.9014 0.732466 10.7423 0.656693ZM9.40541 12.6423L6.24541 10.118C6.08092 9.98602 5.87665 9.91354 5.66577 9.91231H2.86103V6.17267H5.66577C5.87665 6.17145 6.08092 6.09896 6.24541 5.96699L9.40541 3.44273V12.6423ZM17.7355 8.04249L19.4183 6.369C19.5055 6.28183 19.5746 6.17835 19.6218 6.06445C19.669 5.95056 19.6933 5.82849 19.6933 5.70521C19.6933 5.58194 19.669 5.45987 19.6218 5.34597C19.5746 5.23208 19.5055 5.1286 19.4183 5.04143C19.3311 4.95426 19.2277 4.88511 19.1138 4.83793C18.9999 4.79076 18.8778 4.76648 18.7545 4.76648C18.6312 4.76648 18.5092 4.79076 18.3953 4.83793C18.2814 4.88511 18.1779 4.95426 18.0907 5.04143L16.4172 6.72427L14.7438 5.04143C14.5677 4.86538 14.3289 4.76648 14.08 4.76648C13.831 4.76648 13.5922 4.86538 13.4162 5.04143C13.2401 5.21747 13.1412 5.45624 13.1412 5.70521C13.1412 5.95418 13.2401 6.19295 13.4162 6.369L15.099 8.04249L13.4162 9.71598C13.3286 9.8029 13.259 9.9063 13.2115 10.0202C13.1641 10.1342 13.1396 10.2564 13.1396 10.3798C13.1396 10.5032 13.1641 10.6254 13.2115 10.7393C13.259 10.8532 13.3286 10.9566 13.4162 11.0436C13.5031 11.1312 13.6065 11.2007 13.7204 11.2482C13.8344 11.2957 13.9565 11.3201 14.08 11.3201C14.2034 11.3201 14.3256 11.2957 14.4395 11.2482C14.5534 11.2007 14.6568 11.1312 14.7438 11.0436L16.4172 9.36072L18.0907 11.0436C18.1777 11.1312 18.2811 11.2007 18.395 11.2482C18.5089 11.2957 18.6311 11.3201 18.7545 11.3201C18.8779 11.3201 19.0001 11.2957 19.1141 11.2482C19.228 11.2007 19.3314 11.1312 19.4183 11.0436C19.5059 10.9566 19.5755 10.8532 19.623 10.7393C19.6704 10.6254 19.6949 10.5032 19.6949 10.3798C19.6949 10.2564 19.6704 10.1342 19.623 10.0202C19.5755 9.9063 19.5059 9.8029 19.4183 9.71598L17.7355 8.04249Z" fill="black"/>
</svg>
