<svg xmlns="http://www.w3.org/2000/svg" xmlns:xlink="http://www.w3.org/1999/xlink" width="20" height="20" viewBox="0 0 20 20">
  <defs>
    <clipPath id="clip-path">
      <rect id="Rectangle_1923" data-name="Rectangle 1923" width="20" height="20" fill="#fff" stroke="#707070" stroke-width="1"/>
    </clipPath>
  </defs>
  <g id="whatsapp_icon" clip-path="url(#clip-path)">
    <g id="whatsapp" transform="translate(0.081 0)">
      <path id="Path_39028" data-name="Path 39028" d="M9.515.012A9.923,9.923,0,0,0,1.16,14.424L.107,19.536a.386.386,0,0,0,.467.454L5.584,18.8A9.92,9.92,0,1,0,9.515.012Zm5.977,15.4a7.772,7.772,0,0,1-8.949,1.465l-.7-.347-3.071.728.646-3.138-.344-.673A7.774,7.774,0,0,1,4.508,4.427,7.767,7.767,0,1,1,15.492,15.411Z" transform="translate(-0.081 0)" fill="#7ad06d"/>
      <path id="Path_39029" data-name="Path 39029" d="M14.814,12.07l-1.921-.552a.716.716,0,0,0-.709.187l-.47.479a.7.7,0,0,1-.761.161A10.257,10.257,0,0,1,7.644,9.427.7.7,0,0,1,7.7,8.651l.41-.531A.716.716,0,0,0,8.2,7.393L7.39,5.564a.717.717,0,0,0-1.119-.256,3.232,3.232,0,0,0-1.25,1.906c-.136,1.346.441,3.043,2.624,5.081,2.522,2.354,4.542,2.665,5.857,2.346a3.231,3.231,0,0,0,1.718-1.5A.717.717,0,0,0,14.814,12.07Z" transform="translate(-0.081 0)" fill="#7ad06d"/>
    </g>
  </g>
</svg>
