<svg width="17" height="14" viewBox="0 0 17 14" fill="none" xmlns="http://www.w3.org/2000/svg">
<g filter="url(#filter0_i_1526_186)">
<path d="M0 6.54909C0 6.91615 0.282218 7.2195 0.648376 7.26751L0.75017 7.27413L13.9371 7.27355L9.17309 11.8592C8.8795 12.1417 8.87847 12.6008 9.1708 12.8845C9.43655 13.1425 9.85326 13.1668 10.1474 12.9568L10.2317 12.8867L16.2831 7.06326C16.3218 7.02602 16.3554 6.98571 16.3839 6.94315C16.392 6.93034 16.4002 6.91723 16.4079 6.90386C16.4151 6.8924 16.4216 6.8805 16.4277 6.86846C16.4361 6.85096 16.4444 6.83287 16.4519 6.81442C16.458 6.80019 16.4631 6.78635 16.4678 6.7724C16.4733 6.7551 16.4787 6.73667 16.4833 6.71795C16.4867 6.70488 16.4894 6.69231 16.4918 6.67968C16.4951 6.6609 16.498 6.64146 16.5 6.62179C16.5018 6.60679 16.5028 6.59193 16.5034 6.57705C16.5035 6.56803 16.5037 6.55858 16.5037 6.54909L16.5034 6.52101C16.5028 6.50678 16.5018 6.49256 16.5003 6.47838L16.5037 6.54909C16.5037 6.50334 16.4993 6.45858 16.491 6.41518C16.489 6.40481 16.4867 6.39417 16.4841 6.38357C16.4788 6.36174 16.4726 6.34073 16.4656 6.32012C16.4621 6.30988 16.458 6.29895 16.4537 6.28809C16.4449 6.26627 16.4354 6.24548 16.4249 6.22522C16.42 6.21569 16.4146 6.20572 16.4089 6.19585C16.3995 6.17975 16.3898 6.16444 16.3796 6.14953C16.3724 6.13897 16.3644 6.12798 16.3561 6.11717L16.3496 6.10881C16.3294 6.08329 16.3075 6.05911 16.284 6.03642L16.2831 6.03574L10.2317 0.211297C9.93818 -0.0712594 9.4632 -0.070309 9.17085 0.21342C8.90507 0.471356 8.88172 0.874198 9.10023 1.1576L9.17304 1.23877L13.9351 5.82348L0.75017 5.82406C0.335862 5.82406 0 6.14867 0 6.54909Z" fill="black"/>
</g>
<defs>
<filter id="filter0_i_1526_186" x="0" y="0" width="16.5037" height="17.0979" filterUnits="userSpaceOnUse" color-interpolation-filters="sRGB">
<feFlood flood-opacity="0" result="BackgroundImageFix"/>
<feBlend mode="normal" in="SourceGraphic" in2="BackgroundImageFix" result="shape"/>
<feColorMatrix in="SourceAlpha" type="matrix" values="0 0 0 0 0 0 0 0 0 0 0 0 0 0 0 0 0 0 127 0" result="hardAlpha"/>
<feOffset dy="4"/>
<feGaussianBlur stdDeviation="2"/>
<feComposite in2="hardAlpha" operator="arithmetic" k2="-1" k3="1"/>
<feColorMatrix type="matrix" values="0 0 0 0 0 0 0 0 0 0 0 0 0 0 0 0 0 0 0.25 0"/>
<feBlend mode="normal" in2="shape" result="effect1_innerShadow_1526_186"/>
</filter>
</defs>
</svg>
