<svg width="96" height="11" viewBox="0 0 96 11" fill="none" xmlns="http://www.w3.org/2000/svg">
<path d="M0.887695 0.757812H4.33447C5.04118 0.757812 5.64844 0.863607 6.15625 1.0752C6.66829 1.28678 7.06185 1.59993 7.33691 2.01465C7.61198 2.42936 7.74951 2.93929 7.74951 3.54443C7.74951 4.03955 7.66488 4.46484 7.49561 4.82031C7.33057 5.17155 7.0957 5.46566 6.79102 5.70264C6.49056 5.93538 6.13721 6.12158 5.73096 6.26123L5.12793 6.57861H2.13184L2.11914 5.09326H4.34717C4.68148 5.09326 4.95866 5.03402 5.17871 4.91553C5.39876 4.79704 5.5638 4.632 5.67383 4.42041C5.78809 4.20882 5.84521 3.96338 5.84521 3.68408C5.84521 3.38786 5.7902 3.13184 5.68018 2.91602C5.57015 2.7002 5.40299 2.53516 5.17871 2.4209C4.95443 2.30664 4.67301 2.24951 4.33447 2.24951H2.79199V10H0.887695V0.757812ZM6.05469 10L3.94727 5.88037L5.95947 5.86768L8.09229 9.91113V10H6.05469Z" fill="#810081"/>
<path d="M12.2627 10.127C11.7295 10.127 11.2513 10.0423 10.8281 9.87305C10.4049 9.69954 10.0452 9.46045 9.74902 9.15576C9.45703 8.85107 9.23275 8.49772 9.07617 8.0957C8.9196 7.68945 8.84131 7.25781 8.84131 6.80078V6.54688C8.84131 6.02637 8.91536 5.55029 9.06348 5.11865C9.21159 4.68701 9.42318 4.3125 9.69824 3.99512C9.97754 3.67773 10.3161 3.43441 10.7139 3.26514C11.1117 3.09163 11.5602 3.00488 12.0596 3.00488C12.5462 3.00488 12.9779 3.08529 13.3545 3.24609C13.7311 3.4069 14.0464 3.63542 14.3003 3.93164C14.5584 4.22786 14.7531 4.58333 14.8843 4.99805C15.0155 5.40853 15.0811 5.86556 15.0811 6.36914V7.13086H9.62207V5.91211H13.2847V5.77246C13.2847 5.51855 13.2381 5.29215 13.145 5.09326C13.0562 4.89014 12.9207 4.72933 12.7388 4.61084C12.5568 4.49235 12.3241 4.43311 12.0405 4.43311C11.7993 4.43311 11.592 4.486 11.4185 4.5918C11.245 4.69759 11.1032 4.8457 10.9932 5.03613C10.8874 5.22656 10.807 5.45085 10.752 5.70898C10.7012 5.96289 10.6758 6.24219 10.6758 6.54688V6.80078C10.6758 7.07585 10.7139 7.32975 10.79 7.5625C10.8704 7.79525 10.9826 7.99626 11.1265 8.16553C11.2746 8.3348 11.4523 8.46598 11.6597 8.55908C11.8713 8.65218 12.1104 8.69873 12.377 8.69873C12.707 8.69873 13.0138 8.63525 13.2974 8.5083C13.5851 8.37712 13.8327 8.18034 14.04 7.91797L14.9287 8.88281C14.7848 9.09017 14.5881 9.28906 14.3384 9.47949C14.0929 9.66992 13.7967 9.8265 13.4497 9.94922C13.1027 10.0677 12.707 10.127 12.2627 10.127Z" fill="#810081"/>
<path d="M18.9595 8.69873C19.1838 8.69873 19.3826 8.65641 19.5562 8.57178C19.7297 8.48291 19.8651 8.36019 19.9624 8.20361C20.064 8.04281 20.1169 7.85449 20.1211 7.63867H21.8413C21.8371 8.12109 21.708 8.55062 21.4541 8.92725C21.2002 9.29964 20.8595 9.59375 20.4321 9.80957C20.0047 10.0212 19.5265 10.127 18.9976 10.127C18.4644 10.127 17.9989 10.0381 17.6011 9.86035C17.2075 9.68262 16.8796 9.43717 16.6172 9.12402C16.3548 8.80664 16.158 8.43848 16.0269 8.01953C15.8957 7.59635 15.8301 7.14355 15.8301 6.66113V6.47705C15.8301 5.9904 15.8957 5.5376 16.0269 5.11865C16.158 4.69548 16.3548 4.32731 16.6172 4.01416C16.8796 3.69678 17.2075 3.44922 17.6011 3.27148C17.9946 3.09375 18.4559 3.00488 18.9849 3.00488C19.5477 3.00488 20.0407 3.11279 20.4639 3.32861C20.8913 3.54443 21.2256 3.85335 21.4668 4.25537C21.7122 4.65316 21.8371 5.125 21.8413 5.6709H20.1211C20.1169 5.44238 20.0682 5.23503 19.9751 5.04883C19.8862 4.86263 19.755 4.71452 19.5815 4.60449C19.4123 4.49023 19.2028 4.43311 18.9531 4.43311C18.6865 4.43311 18.4686 4.49023 18.2993 4.60449C18.13 4.71452 17.9989 4.86686 17.9058 5.06152C17.8127 5.25195 17.7471 5.46989 17.709 5.71533C17.6751 5.95654 17.6582 6.21045 17.6582 6.47705V6.66113C17.6582 6.92773 17.6751 7.18376 17.709 7.4292C17.7428 7.67464 17.8063 7.89258 17.8994 8.08301C17.9967 8.27344 18.13 8.42367 18.2993 8.53369C18.4686 8.64372 18.6886 8.69873 18.9595 8.69873Z" fill="#810081"/>
<path d="M22.6094 6.63574V6.50244C22.6094 5.99886 22.6813 5.53548 22.8252 5.1123C22.9691 4.6849 23.1785 4.31462 23.4536 4.00146C23.7287 3.68831 24.0672 3.44499 24.4692 3.27148C24.8713 3.09375 25.3325 3.00488 25.853 3.00488C26.3735 3.00488 26.8369 3.09375 27.2432 3.27148C27.6494 3.44499 27.9901 3.68831 28.2651 4.00146C28.5444 4.31462 28.756 4.6849 28.8999 5.1123C29.0438 5.53548 29.1157 5.99886 29.1157 6.50244V6.63574C29.1157 7.13509 29.0438 7.59847 28.8999 8.02588C28.756 8.44906 28.5444 8.81934 28.2651 9.13672C27.9901 9.44987 27.6515 9.6932 27.2495 9.8667C26.8475 10.0402 26.3862 10.127 25.8657 10.127C25.3452 10.127 24.8818 10.0402 24.4756 9.8667C24.0736 9.6932 23.7329 9.44987 23.4536 9.13672C23.1785 8.81934 22.9691 8.44906 22.8252 8.02588C22.6813 7.59847 22.6094 7.13509 22.6094 6.63574ZM24.4375 6.50244V6.63574C24.4375 6.9235 24.4629 7.19222 24.5137 7.44189C24.5645 7.69157 24.6449 7.91162 24.7549 8.10205C24.8691 8.28825 25.0173 8.43424 25.1992 8.54004C25.3812 8.64583 25.6034 8.69873 25.8657 8.69873C26.1196 8.69873 26.3376 8.64583 26.5195 8.54004C26.7015 8.43424 26.8475 8.28825 26.9575 8.10205C27.0675 7.91162 27.1479 7.69157 27.1987 7.44189C27.2537 7.19222 27.2812 6.9235 27.2812 6.63574V6.50244C27.2812 6.22314 27.2537 5.96077 27.1987 5.71533C27.1479 5.46566 27.0654 5.24561 26.9512 5.05518C26.8411 4.86051 26.6951 4.70817 26.5132 4.59814C26.3312 4.48812 26.1112 4.43311 25.853 4.43311C25.5949 4.43311 25.3748 4.48812 25.1929 4.59814C25.0151 4.70817 24.8691 4.86051 24.7549 5.05518C24.6449 5.24561 24.5645 5.46566 24.5137 5.71533C24.4629 5.96077 24.4375 6.22314 24.4375 6.50244Z" fill="#810081"/>
<path d="M32.0674 4.55371V10H30.2329V3.13184H31.9531L32.0674 4.55371ZM31.8135 6.32471H31.3057C31.3057 5.84652 31.3628 5.40641 31.4771 5.00439C31.5955 4.59814 31.7669 4.24691 31.9912 3.95068C32.2197 3.65023 32.5011 3.41748 32.8354 3.25244C33.1698 3.0874 33.557 3.00488 33.9971 3.00488C34.3018 3.00488 34.5811 3.05143 34.835 3.14453C35.0889 3.2334 35.3068 3.37516 35.4888 3.56982C35.675 3.76025 35.8188 4.00993 35.9204 4.31885C36.022 4.62354 36.0728 4.98958 36.0728 5.41699V10H34.2446V5.62012C34.2446 5.30697 34.2023 5.06576 34.1177 4.89648C34.033 4.72721 33.9124 4.60872 33.7559 4.54102C33.6035 4.47331 33.4194 4.43945 33.2036 4.43945C32.9666 4.43945 32.7593 4.48812 32.5815 4.58545C32.408 4.68278 32.2642 4.8182 32.1499 4.9917C32.0356 5.16097 31.951 5.35986 31.896 5.58838C31.841 5.81689 31.8135 6.06234 31.8135 6.32471ZM35.9014 6.11523L35.2476 6.19775C35.2476 5.74919 35.3026 5.33236 35.4126 4.94727C35.5269 4.56217 35.694 4.22363 35.9141 3.93164C36.1383 3.63965 36.4155 3.41325 36.7456 3.25244C37.0757 3.0874 37.4565 3.00488 37.8882 3.00488C38.2183 3.00488 38.5187 3.05355 38.7896 3.15088C39.0604 3.24398 39.291 3.39421 39.4814 3.60156C39.6761 3.80469 39.8242 4.07129 39.9258 4.40137C40.0316 4.73145 40.0845 5.13558 40.0845 5.61377V10H38.25V5.61377C38.25 5.29639 38.2077 5.05518 38.123 4.89014C38.0426 4.72087 37.9242 4.60449 37.7676 4.54102C37.6152 4.47331 37.4333 4.43945 37.2217 4.43945C37.0016 4.43945 36.8091 4.48389 36.644 4.57275C36.479 4.65739 36.3415 4.77588 36.2314 4.92822C36.1214 5.08057 36.0389 5.2583 35.9839 5.46143C35.9289 5.66032 35.9014 5.87826 35.9014 6.11523Z" fill="#810081"/>
<path d="M43.3281 4.55371V10H41.4937V3.13184H43.2139L43.3281 4.55371ZM43.0742 6.32471H42.5664C42.5664 5.84652 42.6235 5.40641 42.7378 5.00439C42.8563 4.59814 43.0277 4.24691 43.252 3.95068C43.4805 3.65023 43.7619 3.41748 44.0962 3.25244C44.4305 3.0874 44.8177 3.00488 45.2578 3.00488C45.5625 3.00488 45.8418 3.05143 46.0957 3.14453C46.3496 3.2334 46.5675 3.37516 46.7495 3.56982C46.9357 3.76025 47.0796 4.00993 47.1812 4.31885C47.2827 4.62354 47.3335 4.98958 47.3335 5.41699V10H45.5054V5.62012C45.5054 5.30697 45.4631 5.06576 45.3784 4.89648C45.2938 4.72721 45.1732 4.60872 45.0166 4.54102C44.8643 4.47331 44.6802 4.43945 44.4644 4.43945C44.2274 4.43945 44.02 4.48812 43.8423 4.58545C43.6688 4.68278 43.5249 4.8182 43.4106 4.9917C43.2964 5.16097 43.2118 5.35986 43.1567 5.58838C43.1017 5.81689 43.0742 6.06234 43.0742 6.32471ZM47.1621 6.11523L46.5083 6.19775C46.5083 5.74919 46.5633 5.33236 46.6733 4.94727C46.7876 4.56217 46.9548 4.22363 47.1748 3.93164C47.3991 3.63965 47.6763 3.41325 48.0063 3.25244C48.3364 3.0874 48.7173 3.00488 49.1489 3.00488C49.479 3.00488 49.7795 3.05355 50.0503 3.15088C50.3211 3.24398 50.5518 3.39421 50.7422 3.60156C50.9368 3.80469 51.085 4.07129 51.1865 4.40137C51.2923 4.73145 51.3452 5.13558 51.3452 5.61377V10H49.5107V5.61377C49.5107 5.29639 49.4684 5.05518 49.3838 4.89014C49.3034 4.72087 49.1849 4.60449 49.0283 4.54102C48.876 4.47331 48.694 4.43945 48.4824 4.43945C48.2624 4.43945 48.0698 4.48389 47.9048 4.57275C47.7397 4.65739 47.6022 4.77588 47.4922 4.92822C47.3822 5.08057 47.2996 5.2583 47.2446 5.46143C47.1896 5.66032 47.1621 5.87826 47.1621 6.11523Z" fill="#810081"/>
<path d="M55.9219 10.127C55.3887 10.127 54.9105 10.0423 54.4873 9.87305C54.0641 9.69954 53.7044 9.46045 53.4082 9.15576C53.1162 8.85107 52.8919 8.49772 52.7354 8.0957C52.5788 7.68945 52.5005 7.25781 52.5005 6.80078V6.54688C52.5005 6.02637 52.5745 5.55029 52.7227 5.11865C52.8708 4.68701 53.0824 4.3125 53.3574 3.99512C53.6367 3.67773 53.9753 3.43441 54.373 3.26514C54.7708 3.09163 55.2194 3.00488 55.7188 3.00488C56.2054 3.00488 56.637 3.08529 57.0137 3.24609C57.3903 3.4069 57.7056 3.63542 57.9595 3.93164C58.2176 4.22786 58.4123 4.58333 58.5435 4.99805C58.6746 5.40853 58.7402 5.86556 58.7402 6.36914V7.13086H53.2812V5.91211H56.9438V5.77246C56.9438 5.51855 56.8973 5.29215 56.8042 5.09326C56.7153 4.89014 56.5799 4.72933 56.3979 4.61084C56.216 4.49235 55.9832 4.43311 55.6997 4.43311C55.4585 4.43311 55.2511 4.486 55.0776 4.5918C54.9041 4.69759 54.7624 4.8457 54.6523 5.03613C54.5465 5.22656 54.4661 5.45085 54.4111 5.70898C54.3604 5.96289 54.335 6.24219 54.335 6.54688V6.80078C54.335 7.07585 54.373 7.32975 54.4492 7.5625C54.5296 7.79525 54.6418 7.99626 54.7856 8.16553C54.9338 8.3348 55.1115 8.46598 55.3188 8.55908C55.5304 8.65218 55.7695 8.69873 56.0361 8.69873C56.3662 8.69873 56.673 8.63525 56.9565 8.5083C57.2443 8.37712 57.4919 8.18034 57.6992 7.91797L58.5879 8.88281C58.444 9.09017 58.2472 9.28906 57.9976 9.47949C57.7521 9.66992 57.4559 9.8265 57.1089 9.94922C56.7619 10.0677 56.3662 10.127 55.9219 10.127Z" fill="#810081"/>
<path d="M61.5713 4.59814V10H59.7432V3.13184H61.457L61.5713 4.59814ZM61.3047 6.32471H60.8096C60.8096 5.81689 60.8752 5.35986 61.0063 4.95361C61.1375 4.54313 61.3216 4.19401 61.5586 3.90625C61.7956 3.61426 62.077 3.39209 62.4028 3.23975C62.7329 3.08317 63.1011 3.00488 63.5073 3.00488C63.8289 3.00488 64.123 3.05143 64.3896 3.14453C64.6562 3.23763 64.8848 3.38574 65.0752 3.58887C65.2699 3.79199 65.418 4.06071 65.5195 4.39502C65.6253 4.72933 65.6782 5.1377 65.6782 5.62012V10H63.8374V5.61377C63.8374 5.30908 63.7951 5.0721 63.7104 4.90283C63.6258 4.73356 63.501 4.61507 63.3359 4.54736C63.1751 4.47542 62.9762 4.43945 62.7393 4.43945C62.4938 4.43945 62.2801 4.48812 62.0981 4.58545C61.9204 4.68278 61.7723 4.8182 61.6538 4.9917C61.5396 5.16097 61.4528 5.35986 61.3936 5.58838C61.3343 5.81689 61.3047 6.06234 61.3047 6.32471Z" fill="#810081"/>
<path d="M71.1245 8.50195V0.25H72.9653V10H71.3086L71.1245 8.50195ZM66.7827 6.64844V6.51514C66.7827 5.9904 66.842 5.51432 66.9604 5.08691C67.0789 4.65527 67.2524 4.28499 67.481 3.97607C67.7095 3.66715 67.9909 3.42806 68.3252 3.25879C68.6595 3.08952 69.0404 3.00488 69.4678 3.00488C69.8698 3.00488 70.221 3.08952 70.5215 3.25879C70.8262 3.42806 71.0843 3.66927 71.2959 3.98242C71.5117 4.29134 71.6852 4.65739 71.8164 5.08057C71.9476 5.49951 72.0428 5.95866 72.1021 6.45801V6.75C72.0428 7.22819 71.9476 7.67253 71.8164 8.08301C71.6852 8.49349 71.5117 8.85319 71.2959 9.16211C71.0843 9.4668 70.8262 9.70378 70.5215 9.87305C70.2168 10.0423 69.8613 10.127 69.4551 10.127C69.0277 10.127 68.6468 10.0402 68.3125 9.8667C67.9824 9.6932 67.7031 9.44987 67.4746 9.13672C67.2503 8.82357 67.0789 8.4554 66.9604 8.03223C66.842 7.60905 66.7827 7.14779 66.7827 6.64844ZM68.6108 6.51514V6.64844C68.6108 6.93197 68.632 7.19645 68.6743 7.44189C68.7209 7.68734 68.7949 7.90527 68.8965 8.0957C69.0023 8.2819 69.1377 8.4279 69.3027 8.53369C69.472 8.63525 69.6772 8.68604 69.9185 8.68604C70.2316 8.68604 70.4897 8.61621 70.6929 8.47656C70.896 8.33268 71.0505 8.1359 71.1562 7.88623C71.2663 7.63656 71.3298 7.3488 71.3467 7.02295V6.19141C71.334 5.9248 71.2959 5.68571 71.2324 5.47412C71.1732 5.2583 71.0843 5.07422 70.9658 4.92188C70.8516 4.76953 70.7077 4.65104 70.5342 4.56641C70.3649 4.48177 70.1639 4.43945 69.9312 4.43945C69.6942 4.43945 69.491 4.49447 69.3218 4.60449C69.1525 4.71029 69.015 4.85628 68.9092 5.04248C68.8076 5.22868 68.7314 5.44873 68.6807 5.70264C68.6341 5.95231 68.6108 6.22314 68.6108 6.51514Z" fill="#810081"/>
<path d="M75.7773 0.757812L77.707 4.97266L79.6367 0.757812H81.7124L78.6719 6.63574V10H76.7422V6.63574L73.6953 0.757812H75.7773Z" fill="#810081"/>
<path d="M81.7314 6.63574V6.50244C81.7314 5.99886 81.8034 5.53548 81.9473 5.1123C82.0911 4.6849 82.3006 4.31462 82.5757 4.00146C82.8507 3.68831 83.1893 3.44499 83.5913 3.27148C83.9933 3.09375 84.4546 3.00488 84.9751 3.00488C85.4956 3.00488 85.959 3.09375 86.3652 3.27148C86.7715 3.44499 87.1121 3.68831 87.3872 4.00146C87.6665 4.31462 87.8781 4.6849 88.022 5.1123C88.1659 5.53548 88.2378 5.99886 88.2378 6.50244V6.63574C88.2378 7.13509 88.1659 7.59847 88.022 8.02588C87.8781 8.44906 87.6665 8.81934 87.3872 9.13672C87.1121 9.44987 86.7736 9.6932 86.3716 9.8667C85.9696 10.0402 85.5083 10.127 84.9878 10.127C84.4673 10.127 84.0039 10.0402 83.5977 9.8667C83.1956 9.6932 82.855 9.44987 82.5757 9.13672C82.3006 8.81934 82.0911 8.44906 81.9473 8.02588C81.8034 7.59847 81.7314 7.13509 81.7314 6.63574ZM83.5596 6.50244V6.63574C83.5596 6.9235 83.585 7.19222 83.6357 7.44189C83.6865 7.69157 83.7669 7.91162 83.877 8.10205C83.9912 8.28825 84.1393 8.43424 84.3213 8.54004C84.5033 8.64583 84.7254 8.69873 84.9878 8.69873C85.2417 8.69873 85.4596 8.64583 85.6416 8.54004C85.8236 8.43424 85.9696 8.28825 86.0796 8.10205C86.1896 7.91162 86.27 7.69157 86.3208 7.44189C86.3758 7.19222 86.4033 6.9235 86.4033 6.63574V6.50244C86.4033 6.22314 86.3758 5.96077 86.3208 5.71533C86.27 5.46566 86.1875 5.24561 86.0732 5.05518C85.9632 4.86051 85.8172 4.70817 85.6353 4.59814C85.4533 4.48812 85.2332 4.43311 84.9751 4.43311C84.717 4.43311 84.4969 4.48812 84.3149 4.59814C84.1372 4.70817 83.9912 4.86051 83.877 5.05518C83.7669 5.24561 83.6865 5.46566 83.6357 5.71533C83.585 5.96077 83.5596 6.22314 83.5596 6.50244Z" fill="#810081"/>
<path d="M93.4238 8.35596V3.13184H95.252V10H93.5317L93.4238 8.35596ZM93.627 6.94678L94.1665 6.93408C94.1665 7.39111 94.1136 7.81641 94.0078 8.20996C93.902 8.59928 93.7433 8.93783 93.5317 9.22559C93.3201 9.50911 93.0535 9.73128 92.7319 9.89209C92.4103 10.0487 92.0316 10.127 91.5957 10.127C91.2614 10.127 90.9525 10.0804 90.6689 9.9873C90.3896 9.88997 90.1484 9.73975 89.9453 9.53662C89.7464 9.32926 89.5898 9.06478 89.4756 8.74316C89.3656 8.41732 89.3105 8.02588 89.3105 7.56885V3.13184H91.1387V7.58154C91.1387 7.78467 91.1619 7.95605 91.2085 8.0957C91.2593 8.23535 91.3291 8.34961 91.418 8.43848C91.5068 8.52734 91.6105 8.59082 91.729 8.62891C91.8517 8.66699 91.9871 8.68604 92.1353 8.68604C92.5119 8.68604 92.8081 8.60986 93.0239 8.45752C93.244 8.30518 93.3984 8.09782 93.4873 7.83545C93.5804 7.56885 93.627 7.27262 93.627 6.94678Z" fill="#810081"/>
</svg>
